<?xml version="1.0" encoding="UTF-8"?>
<svg id="Layer_1" xmlns="http://www.w3.org/2000/svg" version="1.1" xmlns:xlink="http://www.w3.org/1999/xlink" viewBox="0 0 1080 1080">
  <!-- Generator: Adobe Illustrator 29.4.0, SVG Export Plug-In . SVG Version: 2.1.0 Build 152)  -->
  <defs>
    <style>
      .st0 {
        fill: #fef2f0;
      }

      .st1 {
        fill: #e86e6e;
      }

      .st2 {
        fill: #be5656;
      }

      .st3 {
        fill: #f4827f;
      }

      .st4 {
        fill: #dc4f54;
      }

      .st5 {
        fill: #ffd5d0;
      }

      .st6 {
        fill: #cc6b69;
      }

      .st7 {
        fill: #fdc0bb;
      }

      .st8 {
        fill: #f99b91;
      }

      .st9 {
        fill: #ffe1d6;
      }

      .st10 {
        fill: #a03537;
      }

      .st11 {
        fill: url(#linear-gradient);
      }
    </style>
    <linearGradient id="linear-gradient" x1="564.11" y1="233.4" x2="530.87" y2="723.6" gradientUnits="userSpaceOnUse">
      <stop offset="0" stop-color="#fecbbb"/>
      <stop offset="1" stop-color="#fca2a1"/>
    </linearGradient>
  </defs>
  <g id="Generative_Object">
    <path class="st4" d="M879.6,355.56c11.6,19.3,8.89,39.01,15.66,52.38,3.89,7.7,27.22,15.69,32.51,30.11,5.8,15.8-4.98,40.32-1.2,48.17,3.95,8.21,26.77,6.15,30.11,28.9,2.11,14.38-7.58,41.29-6.02,49.37.65,3.38,10.2,14.76,12.04,25.29,5.73,32.77-12.04,82.74-46.97,92.12-4.35,1.17-11.85-1.21-16.26,0-3.01.83-10.24,9.53-16.26,8.43-9.41-2.55-25.02-1.95-36.13-3.61l-36.73-14.45-4.21,1.81c.53.5,1.65,1.41,1.2,1.81-6.28,5.56-11.94,11.93-19.27,16.26l4.82,3.01c-.25.16-1.41-.18-1.2,1.2-3.37-.57-8.82-2.37-9.63,1.2-24.77,10.05-50.49,7.06-77.07,10.84l3.01-3.61c-14.4-4.85-26.32,2.51-39.14,7.23-24.01,8.84-49.18,22.32-75.87,22.88-27.82.58-50.26-21.13-71.65-16.86-2.66.53-37.5,23.8-46.36,27.7-2.97,1.31-7.56,4.48-8.43,4.82-44.55,17.32-116.45,16.54-153.54-16.86-14.48-13.03-19.21-26.62-25.29-44.56-45.7-7.52-87.77,8.65-127.65-21.68-24.6-18.71-38.6-46.66-41.55-77.07l10.84-1.81,7.23,30.71c14.36,40.37,61.77,58.44,101.76,50.58-4.43-2.23-13.14-22.56-14.45-22.88-.52-.13-6.99,4.69-9.63,4.82-.83.04-1.66-2.41-1.81-2.41h1.2c21-13.84,34.53-37.05,11.44-56.6-12.63-10.7-26.32-8.92-37.33-15.66-4.19-2.56-9.18-10.11-12.64-13.85l27.1,11.44c24.15,3.53,47.5,2.64,60.81-20.47.41.11.93-.14,1.2,0-2.54,18.02-19.65,29.26-37.33,29.5,13.07,11.42,20.87,24.34,14.45,42.15-4.96,13.74-16.64,11.59-6.02,30.11,7.35,12.81,17.96,14.33,31.91,12.64,19.23-2.33,10.64-3.09,15.05-13.85,7.92-19.3,21.84-33.47,30.11-52.38,24.19-55.36,1.11-119.2-66.84-105.97-21.71,4.23-26.95,17.03-39.14,32.51,3.22-15.02,10.24-26.13,24.08-33.12-21.6,4.91-41.48-9.68-45.76-30.71.48-1.78-.48-2.08,1.2-4.82.66,16.53,26.58,29.02,41.55,26.49,39.6-6.69,90.04-44.1,64.43-89.11-4.7-8.26-8.95-10.56-16.86-15.05,3.74-1.93,6.15-1.03,9.63-.6,38.39,27.89,19.06,88.29-20.47,105.37,46.08,7.98,72.14,40.73,63.82,87.91-1.1,6.25-6.44,15.68-7.23,21.07-.14.93-1.16,3.33-.6,3.61l9.63-1.2,17.46-7.83c-10.34,14.82-22.62,9.77-34.92,23.48-12.03,13.42-24.65,37.85-25.29,56l6.02-14.45c-8.22,83.4,105.6,106.85,166.79,86.1,20.22-6.86,65.44-31.28,59.61-56.6,1.04-.82.74-4.13,3.01-3.61-.25,2.41.24,4.01,1.81,6.02,7.69,48.11,77.86,39.86,112.6,27.7,6.28-2.2,47.06-22.88,47.57-27.1.09-.72-5.46-9.71-6.02-13.25-.68-4.32,1.36-10.53,1.2-12.64.59,1.08,1.6,2.79,2.41,3.61,1.4,31.47,53.68,32.3,75.26,26.49,9.16-2.47,37.57-19.35,42.75-27.1,7.31-10.93-.83-21.81-1.2-33.12-.06-1.85-1.11-7.19,1.81-7.23,1.06,5.1,3.48,9.7,5.42,14.45,8.67,21.19,4.51,24.24,28.3,32.51,35.72,12.43,79.41,10.91,104.17-21.07,13.96-18.03,22.6-52.31,14.45-74.06-2.75-7.34-9.65-13.97-15.66-18.67h7.23c-.38-5.2,1.51-10.08,2.41-15.05,4.28-23.7,1.33-34.75-19.87-48.17-2.35.38-11.3,34.16-22.28,31.91,7.83-8.31,14.77-24.3,15.66-35.53,1.5-19.05-4.35-48.19-16.86-63.22-2.73-3.28-22.22-19.17-24.69-18.67-1.15.24-11.55,16.26-18.67,12.64,6.77-10.45,12.85-5.69,14.45-19.87.93-8.24-.76-12.94-2.41-20.47,20.32-3.16,12.75-10.45,6.02-23.48-.07-.14-1.09-4.17,1.2-3.01Z"/>
    <path class="st1" d="M879.6,355.56c-2.3-1.16-1.28,2.87-1.2,3.01,6.73,13.03,14.3,20.32-6.02,23.48-6.07-27.67-32.2-52.7-61.42-52.99-2.26-.02-7.87,3.99-8.43,3.01,5.25-8.93,5.67-19.46-2.41-27.1-12.91-28.77-75.48-70.04-103.56-46.97-2.14,1.76-2.17,3.7-3.01,6.02-6.83-16.34-5.73-19.29-21.07-28.9-5.07-3.17-7.01-5.23-13.25-7.23-24.03-15.36-53.14-21.34-80.68-12.04-11.84,4-40.42,19.27-27.1,33.72-5.24-2.17-7.36-7.79-10.24-12.04-22.69-33.48-59.37-33.05-95.13-16.86-21.35,9.66-27.49,18.78-42.15,34.92-.42-1.92-3.62-1.92-4.82-2.41-42.71-17.49-120.61,17.98-121.63,69.24-4.57-1.67-7.92.04-12.04.6-1.54.21-3.3-.26-4.82,0-39.18,6.82-79.71,49.66-72.25,92.12-8.47,1.13-12.27.59-19.87,5.42-19.77,12.57-43.41,85.51-16.26,100.55-29.85,17.71-25.14,63.67-16.86,92.12.5,1.73.79,4.86,1.2,6.02l-7.23-30.71-10.84,1.81c-1.08-11.17-2.2-21.95,0-33.12s13.06-22.04,14.45-28.9c3.94-19.41-7.79-44.73-1.2-71.05,7.82-31.22,30.65-35.21,39.74-52.99,4.78-9.33,5.01-24.3,9.63-34.92,9.62-22.1,39.77-48.52,62.02-57.2,5.1-1.99,13.72-.62,19.27-3.61s15.47-27.09,21.07-34.32c15.62-20.15,55.1-39.38,80.08-40.34,10.49-.4,25.24,7.06,36.13,4.82,5.22-1.08,23.97-21.79,31.31-26.49,32.74-20.96,86.63-20.45,115.61,7.23,39.93-42.64,121.72-20.09,152.94,22.88,40.85-13.29,91.83,16.26,112.6,51.18,2.9,4.87,11.3,28.62,12.64,29.5.64.42,9.36.67,10.84,1.2,20.37,7.31,32.47,12.2,43.95,31.31Z"/>
    <path class="st1" d="M519.53,685.52c5.83,25.31-39.39,49.74-59.61,56.6-61.18,20.75-175-2.7-166.79-86.1l-6.02,14.45c.64-18.14,13.25-42.58,25.29-56-9.47,36.16-7.75,67.62,23.48,91.52,54.62,41.8,134.11,18.7,183.65-20.47Z"/>
    <path class="st1" d="M679.69,662.64c.15,2.11-1.89,8.32-1.2,12.64.56,3.54,6.11,12.52,6.02,13.25-.51,4.21-41.29,24.9-47.57,27.1-34.74,12.16-104.9,20.41-112.6-27.7,32.18,41.2,135.89,18.33,153.54-31.31.04,1.86,1.74,5.04,1.81,6.02Z"/>
    <path class="st1" d="M806.14,639.76c29.53,32.97,61.46,34.75,100.55,16.86,32.37-14.81,43.73-45.98,46.36-79.48,8.15,21.75-.49,56.03-14.45,74.06-24.75,31.99-68.45,33.5-104.17,21.07-23.79-8.28-19.63-11.33-28.3-32.51Z"/>
    <path class="st8" d="M320.83,596.41c.79-5.4,6.12-14.82,7.23-21.07,8.32-47.18-17.75-79.93-63.82-87.91,39.53-17.08,58.86-77.49,20.47-105.37,25.67,3.13,35.99,43.39,31.31,65.63-2.06,9.77-17.08,29.73-15.66,37.33.29,1.55,17.29,18.82,20.47,24.08,14.96,24.76,22.61,66.2,0,87.31Z"/>
    <path class="st8" d="M312.4,602.43c-8.26,18.92-22.19,33.08-30.11,52.38-4.42,10.76,4.18,11.52-15.05,13.85-13.95,1.69-24.56.16-31.91-12.64-10.62-18.51,1.06-16.36,6.02-30.11,6.42-17.81-1.38-30.72-14.45-42.15,17.68-.25,34.8-11.49,37.33-29.5,4.62,2.4,3.54,17.44,2.41,22.28-1.78,7.59-11.48,16.1-12.04,18.06-1.92,6.72,1.35,19.73-1.2,28.9-1.44,5.19-11.86,15.84-12.04,16.86-1.02,5.6,16.44,16.71,21.07,17.46,22.66,3.67,15.67-9.11,23.48-23.48,5.48-10.08,18.12-23.67,26.49-31.91Z"/>
    <path class="st1" d="M682.1,666.25c29.73,30.04,107.95,11.36,116.81-33.72.38,11.31,8.52,22.19,1.2,33.12-5.19,7.75-33.59,24.63-42.75,27.1-21.58,5.81-73.87,4.97-75.26-26.49Z"/>
    <path class="st8" d="M263.03,554.26c-13.31,23.11-36.67,24-60.81,20.47l-27.1-11.44c3.47,3.74,8.45,11.28,12.64,13.85,11.01,6.73,24.7,4.96,37.33,15.66,23.09,19.55,9.56,42.76-11.44,56.6.08-4.1,5.28-7.21,2.41-10.84,11.71-6.76,13.25-28.39,7.23-38.54-11.15-18.79-53.63-11.09-61.42-30.71-10.21-25.72,17.09-7.1,23.48-5.42,14.67,3.85,35.88,3.71,50.58,0,8.43-2.13,20.72-11.26,27.1-9.63Z"/>
    <path class="st3" d="M212.45,649.39c.15,0,.98,2.45,1.81,2.41,2.64-.12,9.11-4.94,9.63-4.82,1.32.32,10.02,20.65,14.45,22.88-39.99,7.86-87.4-10.21-101.76-50.58-.41-1.16-.7-4.29-1.2-6.02,11.16,12.95,18.64,24.76,35.53,31.31,15.82,6.13,25.59,5.04,41.55,4.82Z"/>
    <path class="st8" d="M185.96,460.33c7.43-12.06,9.15,7.39,15.05,10.84,21.34,12.48,70.17-4.22,84.9-23.48,13.46-17.61,9.7-29.78,6.02-49.98,25.62,45.01-24.82,82.43-64.43,89.11-14.96,2.53-40.89-9.97-41.55-26.49Z"/>
    <path class="st9" d="M872.37,382.05c1.65,7.53,3.34,12.23,2.41,20.47-5.17-.25.24-6.14-1.2-9.03-1.01-2.04-3.07,2.5-6.02-1.2-3.13-3.93-4.39-20.1-12.04-28.9-8.6-9.9-48.48-22.3-48.17-26.49.06-.87,6.39-4.45,3.61-7.83,29.22.29,55.35,25.32,61.42,52.99Z"/>
    <path class="st8" d="M920.54,491.64c-.88,11.23-7.83,27.21-15.66,35.53,10.97,2.24,19.93-31.53,22.28-31.91,21.2,13.42,24.15,24.47,19.87,48.17-.67-10.5-10.15-32.61-23.48-28.9-1.61.45-21.37,27.7-25.89,13.85-2.55-7.83,21.21-28.08,19.27-39.74l3.61,3.01Z"/>
    <path class="st8" d="M206.43,528.97c-3.62-1.97-2.2-9.71-4.82-15.05-8.38-17.15-24.22-21.48-16.86-48.77,4.28,21.02,24.17,35.62,45.76,30.71-13.85,6.98-20.86,18.09-24.08,33.12Z"/>
    <path class="st9" d="M800.12,304.98c3.16,7.04,4.59,8.25-.6,14.45-23.22-36.01-62.62-52.36-102.96-61.42,28.08-23.07,90.66,18.2,103.56,46.97Z"/>
    <path class="st9" d="M541.21,237.54c-2.85,2.15-3,1.03-5.42,0-32.85-14.05-43.14-26.41-80.68-8.43-6.66,3.19-37.09,26.89-39.74,26.49-.53-.08-2.14-2.46-3.01-3.01,8.37-13.69,22.68-20.91,33.72-31.91,35.76-16.19,72.44-16.62,95.13,16.86Z"/>
    <path class="st9" d="M659.22,227.91c6.23,2,8.18,4.05,13.25,7.23l3.61,7.83c-36.38-16.26-80.55-24.8-118.62-5.42,4.41-5.86,16.79-16.04,23.48-18.06,16.72-5.06,61.04,2.9,78.28,8.43Z"/>
    <path class="st9" d="M659.22,227.91c-17.24-5.53-61.56-13.49-78.28-8.43l-2.41-3.61c27.55-9.3,56.65-3.32,80.68,12.04Z"/>
    <g>
      <path class="st10" d="M592.99,734.89c1.41,6.12-4.76,1.23-4.82,6.02-1.36.1-8.24,1.89-9.63,2.41-1.6-2.5-6.8-1.54-7.23,1.2-3.67-2.26-8.41-2.67-12.64-2.41-.82.43,1.28,9.11,1.81,10.84,1.81,5.94,8.7,14.99,13.25,19.27l-3.61,2.41c-2.89-2.68-6.6-4.75-9.63-7.83-6.56-6.66-9.65-19.09-19.87-21.07-5.35-1.04-21.06,1.8-22.88,1.2-.94-.31-1.83-6.71-10.84-6.02-4.1.31-25.16,11.91-27.1,15.66-4.72.2-2.21-8.19-4.82-10.84,8.86-3.9,43.71-27.17,46.36-27.7,21.39-4.27,43.83,17.44,71.65,16.86Z"/>
      <path class="st1" d="M782.05,697.56l77.07,16.86c-1.74.47-9.03,5.22-12.64,6.02-29.39,6.55-57.75-13.66-84.3-12.04-7.44.45-20.42,5.78-28.3,6.62,2.3.65,3.37,5.2,3.61,5.42-2.86-1.86-6.16-5.86-6.62-6.02-6.12-2.13-30.19,5.42-37.93,6.02-2.9-1.19-5.6-2.25-8.43-3.61-2.74-6.23,16.34-7.84,20.47-8.43,26.58-3.78,52.3-.79,77.07-10.84Z"/>
      <path class="st6" d="M807.34,675.89c12.4,7.95,25.78,8.75,39.74,10.84,11.1,1.66,26.72,1.06,36.13,3.61,2.3.63,8.85,3.15,9.63,5.42,4.27,12.37-26.46,12.37-33.72,11.44-20.37-2.61-47.44-24.52-66.23-12.04l-4.82-3.01c7.33-4.33,12.99-10.69,19.27-16.26Z"/>
      <path class="st8" d="M859.12,707.2c-22.89,3.21-45.34-7.08-67.44-10.84-.2-1.38.96-1.04,1.2-1.2,18.79-12.47,45.87,9.43,66.23,12.04Z"/>
      <path class="st6" d="M704.98,708.4c-4.13.59-23.22,2.19-20.47,8.43-6.36-3.06-6.92-8.26-15.66-4.82,12.82-4.72,24.74-12.08,39.14-7.23l-3.01,3.61Z"/>
      <path class="st10" d="M847.08,686.72c-13.96-2.09-27.34-2.89-39.74-10.84.45-.4-.68-1.3-1.2-1.81l4.21-1.81,36.73,14.45Z"/>
      <path class="st8" d="M586.97,875.79c-21.73-1.22-17.82-20.22-25.29-36.73-2.78-6.15-9.17-19.26-13.25-24.08-17.16-20.29-66.59-21.36-68.64-54.79,13.88.79,25.74-6.63,37.93-12.04,5.97,25.7,21.62,34.73,43.35,45.76,7.8,3.96,30.84,8.72,34.32,16.26,5.19,11.23-9.45,51.3-8.43,65.63Z"/>
      <path class="st6" d="M570.11,774.63c16.94,15.68,32.73,24.59,54.19,33.12,0,27.51,1.06,70.19-37.33,68.04-1.02-14.33,13.62-54.4,8.43-65.63-3.48-7.54-26.52-12.3-34.32-16.26-21.73-11.03-37.38-20.06-43.35-45.76-12.2,5.41-24.06,12.83-37.93,12.04-.02-.27-1.96.18,0-3.61s23-15.34,27.1-15.66c9.01-.69,9.9,5.72,10.84,6.02,1.82.59,17.54-2.24,22.88-1.2,10.22,1.99,13.31,14.41,19.87,21.07,3.03,3.08,6.74,5.15,9.63,7.83Z"/>
      <path class="st1" d="M573.72,772.22c-4.54-4.28-11.43-13.33-13.25-19.27l19.27,2.41c.2.22-.2.99,0,1.2,12.31,13.43,25.67,25,44.56,28.9,39.13,21.48,42.83,11.12,82.49,8.43,40.16-2.72,73.65-.71,111.99-16.86,18.98-7.99,34.82-21.92,52.99-31.31-46.74,50.58-128.69,64.88-195.09,61.42-31.19-1.63-79.58-12.9-102.96-34.92Z"/>
      <path class="st8" d="M737.5,720.44c-.24-.22-1.32-4.77-3.61-5.42,7.88-.84,20.86-6.17,28.3-6.62,26.55-1.61,54.9,18.59,84.3,12.04,3.61-.8,10.9-5.55,12.64-6.02.12-.03-.44-2.12.6-2.41,1.14-.31,9.01.81,12.04,0,2.09-.56,19.2-6.76,19.87-5.42-35.48,21.01-84.79,32.81-125.84,24.69-5.09-1.01-24.93-7.81-28.3-10.84Z"/>
      <path class="st8" d="M589.38,757.77l20.47-7.23c30.29,14.59,58.8,36.56,93.33,39.74-8.22,3.65-26.55,5.39-37.33,4.82-27.82-1.49-54.92-20.86-76.47-37.33Z"/>
      <path class="st8" d="M737.5,720.44c5.32,3.45,10.11,9.58,18.06,11.44-21.87,2.79-42.79-3.31-62.62-11.44,7.75-.6,31.82-8.15,37.93-6.02.46.16,3.76,4.16,6.62,6.02Z"/>
      <path class="st6" d="M609.85,750.55l-20.47,7.23c-5.32-4.07-10.89-7.87-15.66-12.64.2-.88,3.97-1.49,4.82-1.81,1.39-.52,8.27-2.31,9.63-2.41,9.53-.68,13.44,5.67,21.68,9.63Z"/>
      <g>
        <path class="st10" d="M915.72,681.91c-20.44,30.99-31.17,61.31-59.61,86.71-58.75,52.45-151.56,53.94-225.19,39.74-1.8,13.64.57,27.19-1.81,40.94-2.56,14.8-10.86,28.06-25.89,32.51-35.25,10.44-35.72-13.22-49.98-36.13-3.44-5.52-5.71-12.12-9.63-17.46-23.72-32.29-74.42-32.63-77.07-77.67.87-.34,5.46-3.51,8.43-4.82,2.6,2.65.09,11.03,4.82,10.84-1.96,3.79-.02,3.34,0,3.61,2.05,33.43,51.48,34.51,68.64,54.79,4.08,4.82,10.47,17.94,13.25,24.08,7.47,16.51,3.56,35.51,25.29,36.73,38.4,2.15,37.33-40.52,37.33-68.04-21.46-8.53-37.25-17.44-54.19-33.12l3.61-2.41c23.38,22.02,71.77,33.3,102.96,34.92,66.4,3.46,148.35-10.83,195.09-61.42-18.16,9.39-34,23.32-52.99,31.31-38.35,16.15-71.83,14.13-111.99,16.86-39.66,2.69-43.36,13.05-82.49-8.43-15.47-8.49-28.92-20.69-44.56-28.9-.2-.22.2-.98,0-1.2-1.9-2.12-7.2-10.08-8.43-10.84.42-2.74,5.63-3.71,7.23-1.2-.85.32-4.62.93-4.82,1.81,4.76,4.78,10.33,8.58,15.66,12.64,21.54,16.47,48.65,35.84,76.47,37.33,10.78.58,29.11-1.17,37.33-4.82-34.53-3.18-63.04-25.15-93.33-39.74-8.23-3.97-12.15-10.31-21.68-9.63.06-4.79,6.23.1,4.82-6.02,26.68-.56,51.86-14.04,75.87-22.88,8.73-3.44,9.3,1.76,15.66,4.82,2.83,1.36,5.53,2.42,8.43,3.61,19.83,8.13,40.75,14.23,62.62,11.44-7.95-1.86-12.75-7.99-18.06-11.44,3.37,3.02,23.2,9.83,28.3,10.84,41.06,8.12,90.36-3.68,125.84-24.69-.67-1.34-17.78,4.86-19.87,5.42-3.03.81-10.91-.31-12.04,0-1.04.29-.48,2.38-.6,2.41l-77.07-16.86c.81-3.58,6.27-1.78,9.63-1.2,22.1,3.76,44.55,14.05,67.44,10.84,7.25.93,37.99.93,33.72-11.44-.78-2.26-7.33-4.79-9.63-5.42,6.01,1.1,13.25-7.6,16.26-8.43,4.41-1.21,11.91,1.17,16.26,0Z"/>
        <g>
          <path class="st8" d="M617.07,749.34l30.11-9.63c33.81,16.93,140.32,14.69,178.83,6.02,18.42-4.15,37.21-11.56,55.39-16.86,4.21.57-4.3,12.06-6.02,13.25-3.15,2.17-42.78,17.76-48.17,19.27-42.23,11.81-170.1,5.58-210.14-12.04Z"/>
          <path class="st8" d="M655.61,739.71l30.11-16.86c39.47,14.25,75.34,16.18,117.41,13.25,29.05-2.03,62.07-9.35,86.71-25.29-2.09,5.41-4.62,13.81-9.63,16.86-3.29,2-62.35,16.75-69.85,18.06-25.71,4.51-133.64,4.06-154.74-6.02Z"/>
          <path class="st8" d="M845.28,756.57c.83-.15,2.73-.26,3.01.6-62.14,38.34-148.19,44.41-210.74,3.61,55.52,5.84,125.29,19.59,180.03,6.62,7.97-1.89,21.85-9.76,27.7-10.84Z"/>
          <path class="st1" d="M647.18,739.71l-30.11,9.63c-6.21-2.73-14.78-7.52-19.87-12.04,9.5,2.12,31.23-8.54,38.54-7.23,2.35.42,10.28,9.05,11.44,9.63Z"/>
          <path class="st1" d="M685.71,722.85l-30.11,16.86c-1.33-.63-15.7-11.21-15.05-12.04,6.7-.49,30.65-12.36,34.92-12.04,1.56.12,9.25,6.87,10.24,7.23Z"/>
          <path class="st8" d="M624.3,785.47c-18.89-3.91-32.25-15.47-44.56-28.9,15.64,8.21,29.09,20.41,44.56,28.9Z"/>
        </g>
      </g>
      <path class="st2" d="M571.31,744.53c1.23.76,6.53,8.72,8.43,10.84l-19.27-2.41c-.53-1.73-2.62-10.41-1.81-10.84,4.24-.27,8.97.15,12.64,2.41Z"/>
    </g>
    <path class="st7" d="M216.06,638.55c-3.72,2.15-15.18,3.99-15.66-.6-.11-1.11,10.67-12.26,13.25-18.06,2.83-6.36-1.41-16.84,9.63-19.87,6.03,10.15,4.49,31.77-7.23,38.54Z"/>
    <g>
      <path class="st11" d="M580.95,219.48c-6.69,2.03-19.08,12.2-23.48,18.06,38.07-19.39,82.24-10.84,118.62,5.42l-3.61-7.83c15.35,9.61,14.24,12.56,21.07,28.9.84-2.33.87-4.26,3.01-6.02,40.35,9.05,79.74,25.41,102.96,61.42,5.19-6.2,3.76-7.41.6-14.45,8.08,7.63,7.66,18.17,2.41,27.1.56.98,6.16-3.03,8.43-3.01,2.78,3.37-3.55,6.95-3.61,7.83-.31,4.19,39.57,16.6,48.17,26.49,7.65,8.8,8.91,24.97,12.04,28.9,2.95,3.71,5.01-.83,6.02,1.2,1.44,2.9-3.96,8.78,1.2,9.03-1.6,14.18-7.68,9.42-14.45,19.87,7.11,3.61,17.51-12.41,18.67-12.64,2.47-.5,21.96,15.39,24.69,18.67,12.51,15.03,18.35,44.17,16.86,63.22l-3.61-3.01c1.95,11.66-21.82,31.91-19.27,39.74,4.52,13.85,24.28-13.4,25.89-13.85,13.33-3.7,22.81,18.4,23.48,28.9-.9,4.97-2.79,9.85-2.41,15.05h-7.23c6,4.69,12.91,11.32,15.66,18.67-2.63,33.5-13.99,64.67-46.36,79.48-39.09,17.89-71.02,16.11-100.55-16.86-1.94-4.75-4.36-9.35-5.42-14.45-2.92.04-1.87,5.37-1.81,7.23-8.86,45.08-87.08,63.76-116.81,33.72-.81-.82-1.82-2.53-2.41-3.61-.07-.98-1.76-4.16-1.81-6.02-17.65,49.64-121.36,72.51-153.54,31.31-1.57-2.01-2.05-3.61-1.81-6.02-2.27-.51-1.97,2.79-3.01,3.61-49.54,39.17-129.02,62.28-183.65,20.47-31.23-23.9-32.95-55.36-23.48-91.52,12.3-13.72,24.59-8.66,34.92-23.48l-17.46,7.83-9.63,1.2c-.56-.28.47-2.69.6-3.61,22.61-21.1,14.96-62.55,0-87.31-3.18-5.27-20.18-22.53-20.47-24.08-1.42-7.6,13.6-27.56,15.66-37.33,4.68-22.24-5.64-62.5-31.31-65.63-3.48-.43-5.9-1.33-9.63.6,7.91,4.5,12.16,6.79,16.86,15.05,3.68,20.19,7.44,32.36-6.02,49.98-14.72,19.26-63.56,35.96-84.9,23.48-5.9-3.45-7.63-22.9-15.05-10.84-1.69,2.74-.72,3.03-1.2,4.82-7.36,27.29,8.48,31.62,16.86,48.77,2.61,5.35,1.19,13.08,4.82,15.05,12.19-15.48,17.42-28.29,39.14-32.51,67.94-13.23,91.02,50.61,66.84,105.97-8.37,8.25-21.01,21.83-26.49,31.91-7.81,14.37-.83,27.15-23.48,23.48-4.64-.75-22.09-11.86-21.07-17.46.18-1.02,10.6-11.67,12.04-16.86,2.55-9.17-.72-22.18,1.2-28.9.56-1.96,10.26-10.48,12.04-18.06,1.14-4.84,2.21-19.88-2.41-22.28-.27-.14-.79.11-1.2,0-6.38-1.62-18.66,7.51-27.1,9.63-14.7,3.71-35.91,3.85-50.58,0-6.39-1.68-33.69-20.3-23.48,5.42,7.79,19.62,50.26,11.92,61.42,30.71-11.05,3.03-6.81,13.51-9.63,19.87-2.58,5.8-13.36,16.95-13.25,18.06.47,4.59,11.93,2.75,15.66.6,2.87,3.62-2.33,6.74-2.41,10.84h-1.2c-15.96.22-25.73,1.32-41.55-4.82-16.88-6.55-24.36-18.36-35.53-31.31-8.28-28.46-12.99-74.41,16.86-92.12-27.15-15.04-3.51-87.99,16.26-100.55,7.6-4.83,11.4-4.29,19.87-5.42-7.45-42.47,33.07-85.3,72.25-92.12-32.77,12.53-68.29,46.43-64.43,84.3,4.5-24.76,19.82-46.4,39.74-61.42,8.73-6.58,29.53-12.88,29.5-22.88,4.12-.56,7.47-2.27,12.04-.6,1.02-51.27,78.92-86.74,121.63-69.24-43.18-2.05-88.72,10.49-108.98,51.78,20.54-18.6,56.88-39.51,84.3-44.56,8.28-1.52,22.73.78,26.49,0s2.82-4.61,3.01-4.82c14.66-16.15,20.8-25.26,42.15-34.92-11.04,11-25.35,18.22-33.72,31.91.87.55,2.48,2.93,3.01,3.01,2.65.4,33.08-23.3,39.74-26.49,37.54-17.98,47.84-5.62,80.68,8.43,2.42,1.03,2.57,2.15,5.42,0,2.88,4.25,5,9.87,10.24,12.04-13.32-14.45,15.26-29.72,27.1-33.72l2.41,3.61Z"/>
      <g>
        <path class="st9" d="M399.11,253.2c1.19.49,4.4.49,4.82,2.41-.19.21.9,4-3.01,4.82s-18.21-1.52-26.49,0c-27.41,5.05-63.76,25.96-84.3,44.56,20.26-41.29,65.8-53.83,108.98-51.78Z"/>
        <path class="st9" d="M265.43,323.04c.03,10-20.77,16.3-29.5,22.88-19.92,15.01-35.24,36.66-39.74,61.42-3.86-37.86,31.66-71.76,64.43-84.3,1.52-.26,3.27.21,4.82,0Z"/>
        <path class="st8" d="M396.7,705.99c-48.81-2.77-43.93-60.11-7.83-83.09,29.43-18.73,42.81-9.11,69.85-12.04,3.34-.36,17.96-10.41,22.88-12.04,35.8-11.84,74.24-12.83,107.18,7.23,4.82,2.93,21.43,18.92,22.88,19.27,2.82.68,37.28-15.14,45.76-16.86s21.53.36,27.7-1.2c4.35-1.1,45.37-35.74,60.21-42.15,21.12-9.12,66.71-10.97,79.48-21.68,11.2-9.39,16.13-31.29,12.64-45.16-2.09-8.32-12.14-15.52-12.04-22.28,36.26,23.18,37.7,78.23-10.24,86.71-42.55,7.52-59.02,3.04-98.75,28.9-7.37,4.8-27.02,25.92-28.9,26.49-1.7.52-9.49-3.5-12.04-3.61-29.82-1.26-46.69,5.19-67.44,26.49-25.31-56.44-94.3-55.19-138.49-21.68-2.46,1.86-8.92,10.73-9.63,10.84-.78.11-10.15-7.42-13.25-8.43-55.72-18.17-119.22,60.74-49.98,84.3Z"/>
        <path class="st8" d="M754.36,515.72c16.45-35.55,44.46-54.71,39.74-99.35-2.81-26.55-26.8-52.17-52.38-58.41-5.95-1.45-26.49-1.28-29.5-4.21-3.76-3.66-6.07-36.73-10.84-46.97-12.91-27.72-49.31-43.71-77.67-30.71-2.78,1.27-7.05,8.47-9.63,8.43-1.81-.03-26.25-19.09-26.49-24.08l.6,6.62c5.37,8.24,23.54,17.54,25.29,25.89.31,1.48-.69,3.1,1.2,4.21-6.17,1.92-4.41-5.57-4.82-6.02-7.6-8.28-13.18-4.68-20.47-19.27-1.62-3.24-11.6-13.3.6-12.64.76.23,4.69,7.06,7.23,8.43,16.31,8.82,21.8-.34,34.92-2.41,53.49-8.45,73.63,21.36,92.12,65.63.85,2.04,1.26,10.39,2.41,12.04,1.35,1.93,34.95,16.86,41.55,22.28,27.78,22.79,45.69,71.16,22.28,102.96l-36.13,47.57Z"/>
        <path class="st4" d="M754.36,515.72c-2.04,4.41-2.5,9.85-4.82,14.45-1.26.13-3.58-3.92-3.61-4.21-2.07-19.12,38.99-57.75,42.15-84.3,3.18-26.75-10.19-57.7-34.92-69.24-20.55-9.58-50.11-8.4-63.82,11.44-5.34,7.72-5.39,16.23-8.43,21.68-1.75,3.14-2.97.25-3.61.6-.12-.97-.83-1.42-1.2-2.41.77-21.23,15.1-33.76,31.31-45.16-.69-1.05-3.6-.63-4.82-.6-1.61-18.33-2.09-35.24-10.84-51.78-13.87-26.22-45.72-39.15-71.65-21.68-2.19,1.47-7.45,5.12-6.62,8.43-1.75-8.35-19.92-17.65-25.29-25.89l-.6-6.62c.24,4.99,24.69,24.05,26.49,24.08,2.58.04,6.86-7.16,9.63-8.43,28.36-13,64.76,2.99,77.67,30.71,4.77,10.23,7.08,43.31,10.84,46.97,3.02,2.94,23.55,2.76,29.5,4.21,25.58,6.23,49.57,31.85,52.38,58.41,4.73,44.64-23.29,63.8-39.74,99.35Z"/>
        <path class="st4" d="M636.34,326.66c-.1,1.18-.88,4.99-1.2,6.02-3.94,12.42-20.43,24.25-31.91,28.9-2.71,1.1-13.84,2-14.45,2.41-1.13.75-4.81,20.61-7.83,25.89-13.47,23.57-51.12,24.49-56.6-5.42-1.05-5.72-1.47-9.23,0-15.05,2.7-2.13,1.83,1.53,3.61,1.81-1.71,41.08,44.18,28.47,48.17-3.01,5.35-42.2-37.19-50.08-43.35-82.49-.32-1.7-1.28-9.33-1.2-10.84,4.93,6.08,5.23,15.41,9.63,22.28,11.63,18.12,42.96,33.08,46.36,60.81,22.51-2.29,34.57-15.92,48.77-31.31Z"/>
        <path class="st8" d="M517.12,320.64c-45.55,4.86-50.79,38.13-80.08,59.01-15.89,11.33-36.97,13.64-52.99,25.29-11.48,1.51-24.3-13.09-27.1-22.88,5.53-1.91,20.97,4.98,31.91,3.61,6.27-.78,43.58-13.37,48.17-16.86,7.96-6.06,10.54-15.87,16.26-22.28,18.87-21.16,47.2-31.69,75.26-30.71l-11.44,4.82Z"/>
        <path class="st8" d="M524.35,384.46c5.48,29.91,43.13,28.99,56.6,5.42,3.02-5.28,6.7-25.14,7.83-25.89.61-.41,11.74-1.31,14.45-2.41,11.49-4.65,27.98-16.49,31.91-28.9,5.52,13.25-8.56,33.34-19.87,40.94-2.8,1.88-13.9,4.3-14.45,4.82-.92.86-5.04,17.99-9.03,23.48-12.94,17.81-41.87,19.27-59.61,7.83-5.95-3.83-17.74-19.43-7.83-25.29Z"/>
        <path class="st5" d="M532.17,612.06c17.87-1.24,38.46,2.07,48.77,18.67,1.66,2.68,5.44,9.98,3.01,11.44-27.45-38.93-101.51-26.29-114.4,19.27-6.05,3.25-19.42-10.68-25.29-13.25-29.62-12.95-61.93,6.73-51.18,40.34-2.91,4.95-8.33-8.93-8.43-9.63-4.63-31.41,35.56-46.6,60.81-42.75,6.43.98,18.16,11.28,20.47,10.84,1.46-.28,16.68-17.31,21.68-20.47,10.07-6.37,32.81-13.64,44.56-14.45Z"/>
        <path class="st4" d="M517.12,320.64c4.93-.53,25.8-.8,28.3,2.41l-1.2,2.41c-59.66-16.84-129.07,78.45-60.21,110.79,1.56,1.67-1.82,1.1-1.81,1.2-17.86-4.88-28.87-20.37-32.51-37.93-1.5-7.24-.32-14.48-1.2-21.07-.14-1.03.49-3.21-.6-3.61-14.74,20.72-56.14,20.88-63.22,47.57-4.29,16.14,2.59,20.64,15.66,24.69-2.64,6.27-15.12-2.86-16.86-5.42-9.18-13.5,2.18-29.99,1.2-31.31-.48-.64-10.41-2.3-15.05-5.42-6.32-4.25-12.37-14.25-13.85-21.68.07-.05-.46-.63,1.2-1.2,2.8,9.79,15.61,24.39,27.1,22.88,16.02-11.65,37.09-13.96,52.99-25.29,29.29-20.87,34.53-54.15,80.08-59.01Z"/>
        <path class="st8" d="M484.61,268.85c-30.82,18.61-72.29-3.44-107.18,41.55-5.45,7.02-7.19,20.25-16.26,23.48-14.79,5.27-31.54-9.94-37.33-8.43l-1.2,2.41c12.87,8.3,27.36,18.24,42.15,8.43.06,4.49-.24,7.44.6,12.04.55,3.02,1.85,5.75,1.2,9.03l5.42,7.83c-5.95-.17-7.58-11.23-8.43-12.04-2.54-2.42-22.83-2.25-28.9-4.82-6.81-2.88-19.45-18.83-12.04-25.29,5.58-4.87,5.28,1.16,6.02,1.2,8.14.54,16.26,5.22,24.08,3.61s27.54-28.86,37.33-36.13c25.03-18.58,48.95-18.89,78.28-22.88,4.24-.58,18.76-8.21,16.26,0Z"/>
        <path class="st5" d="M749.54,530.17c-.77,1.54-2.62,6.77-4.21,7.23-1.58.34-3.56-.3-4.21-1.81-8.55-19.7,30.98-69.62,34.92-92.73.13-.78,1.44-19.97-2.41-13.85-.11-13.24-4.83-23.65-7.23-36.13,15.09,9.55-7.99-18.4-13.25-20.47,24.74,11.54,38.1,42.49,34.92,69.24-3.15,26.55-44.22,65.18-42.15,84.3.03.29,2.35,4.35,3.61,4.21Z"/>
        <path class="st8" d="M400.31,447.08c2.78.86,4.34,0,6.02,1.81-9.57,11.5-28.99,4.09-36.13-7.23-2.17-3.44-3.81-12.88-4.82-14.45-2.88-4.48-11.15-6.58-14.45-12.04-5.89-9.74-4.82-25.66,4.82-31.91,1.48,7.42,7.53,17.42,13.85,21.68,4.64,3.12,14.58,4.78,15.05,5.42.98,1.32-10.38,17.81-1.2,31.31,1.74,2.56,14.22,11.69,16.86,5.42Z"/>
        <path class="st8" d="M897.66,601.22c-20.17-12.52-46.22-13.98-62.62-35.53,36.81-24.18,25.26-72.19-8.43-93.33,13.57-3.3,34.78,22.09,37.33,34.32,5.59,26.75-8.57,35.42-10.84,52.99-2.81,21.76,25.32,23.59,39.14,33.12,1.28.89,8.19,5.87,5.42,8.43Z"/>
        <path class="st9" d="M777.84,581.95c32.47-2.68,74.87,10.42,65.63,51.18-3.3,3.01-5.46-10.89-6.02-12.04-17.4-35.36-41.39-41.27-77.67-27.1-17.98,7.02-27.3,20.25-40.94,32.51,3.68-28,33.58-42.46,59.01-44.56Z"/>
        <path class="st8" d="M532.78,285.71c6.17,32.41,48.7,40.29,43.35,82.49-3.99,31.48-49.88,44.09-48.17,3.01,1.06.16,1.91-2.03,3.01-1.2,6.86,5.16,3.77,21.83,19.87,19.27,14.15-2.25,20.77-23.01,18.06-35.53-1.28-5.89-5.58-9.47-8.43-13.85-7.44-11.43-20.44-25.48-26.49-36.73-1.78-3.31-10.33-22.18-1.2-17.46Z"/>
        <path class="st4" d="M449.68,283.3c-12.5,2.5-24.25,2.28-36.73,7.23-23.76,9.41-42.8,32.72-47.57,57.8-.84-4.6-.54-7.55-.6-12.04-14.79,9.81-29.28-.13-42.15-8.43l1.2-2.41c5.79-1.51,22.55,13.7,37.33,8.43,9.07-3.23,10.81-16.46,16.26-23.48,34.89-44.99,76.35-22.93,107.18-41.55,4.63-2.8,7.3-8.1,10.84-10.84-3.07,23.36-28.52,21.84-45.76,25.29Z"/>
        <path class="st8" d="M636.34,326.66c-14.2,15.39-26.26,29.02-48.77,31.31-3.4-27.74-34.74-42.69-46.36-60.81-4.41-6.87-4.7-16.2-9.63-22.28.08-1.69,1.51-12.77,4.82-11.44-.46,26.89,18.61,36.47,33.72,52.99,3.89,4.26,22.32,30.09,24.69,30.71,11.71,3.06,36.14-18.43,39.74-30.11,2.85-.08,1.96,7.74,1.81,9.63Z"/>
        <path class="st0" d="M331.07,615.67c2.18-.22,6.77-.59,7.83,1.81,1.11,2.52-5.09,52.69-16.26,48.77-17.21-10.06-10.98-48.59,8.43-50.58Z"/>
        <path class="st9" d="M766.4,392.89c2.39,12.48,7.11,22.88,7.23,36.13.02,1.88-.78,13.29-1.81,13.25-3.18-13.68-.41-23.86-7.83-37.93-16.82-31.89-55.26-28.41-72.25,1.2,5.8-27.84,39.29-43.35,63.22-25.89,4.31,3.14,8.5,11.38,11.44,13.25Z"/>
        <path class="st9" d="M502.07,350.74c29.95-3.27-3.18,8.31-9.63,13.25-19.14,14.65-26.29,39.76-12.64,60.81-9.96-1.35-16.26-23.88-15.66-33.72,1.08-17.45,20.15-38.4,37.93-40.34Z"/>
        <path class="st8" d="M702.57,357.97c-9.38.2-25.86,18.85-27.7,27.1-.7,3.14,2.46,4.42,2.41,4.82-.68,5.82-4.1,6.32-1.2,13.85.38.98,1.09,1.44,1.2,2.41-2.25,1.25-5.68.71-8.43,4.21-3.99-14.68-1.8-33.66,8.43-45.76,4.09-4.84,18.85-12.15,19.27-13.25.96-2.52-1.68-22.34-2.41-26.49-.97-5.47-8.73-16.19-2.41-18.67,8.75,16.54,9.23,33.45,10.84,51.78Z"/>
        <path class="st8" d="M449.68,283.3c17.25-3.45,42.69-1.93,45.76-25.29,1.43-1.11,2.97-2.25,4.21-3.61,9.99,6.97-13.82,27.03-13.85,30.71-.02,2.35,9.87,12.39,7.23,21.68-4.18,14.68-17.82-11.93-22.28-15.05-6.24-4.37-15.18-4.25-21.07-8.43Z"/>
        <path class="st9" d="M251.59,504.88c11.57-1.31,29.27,1.83,39.74,7.23,6.64,3.42,19.7,14.59,18.67,22.28-27.04-29.4-70.38-30.65-94.53,3.01-3.19-16.7,22-30.91,36.13-32.51Z"/>
        <path class="st4" d="M742.31,413.36c-1.88,5.73-23.58,14.88-24.08,16.26-.29.81,4.08,11.38,3.61,16.86-.53,6.12-5.79,13.94-9.63,18.67-4.47,2.76-9.2,4.8-13.85,7.23-1.98-3.57,1.72-3.47,4.21-6.02,8.04-8.23,12.94-14.69,9.63-27.1s-9.19-7.98-13.85-10.24c-6.82-3.3-15.74-6.92-19.87-13.25,20.99,5.8,30.05,15.19,53.59,2.41,4.69-2.55,7.82-12.91,10.24-4.82Z"/>
        <path class="st8" d="M706.19,634.94c.71,1.25,5.72,7.15,1.81,8.43-28.43-31.42-71.94-11.3-99.35,10.84-2.24-5.32,8.48-14.71,12.64-18.06,23.53-18.95,60.83-18.26,84.9-1.2Z"/>
        <path class="st9" d="M434.63,295.35c10.28-1.23,24.93-.59,33.12,6.62-.07,2.19-26.29.19-29.5.6-22.01,2.79-45.98,21.21-50.58,43.35-4.22-23.8,25.1-47.96,46.97-50.58Z"/>
        <path class="st8" d="M909.7,612.06c1.79,2.27,8.1,6.72,4.21,10.84-13.07-15.27-33.73-14.78-52.38-14.45l-12.64-24.08,60.81,27.7Z"/>
        <path class="st9" d="M266.04,388.07c31.34,16.11,13.66,69.61-19.27,73.46,4.96-7.18,14.67-11.26,19.87-18.67,12.48-17.77,10.41-37.04-.6-54.79Z"/>
        <path class="st9" d="M648.99,292.94c28.24,2.14,48.44,25.76,39.74,54.19-8.71-17.39-11.51-35.43-28.9-46.97-.94-.63-16.23-4.91-10.84-7.23Z"/>
        <path class="st9" d="M883.81,426.61c24.43,13.06,39.57,52.69,20.47,75.87,7.76-30.61-6.45-50.98-20.47-75.87Z"/>
        <path class="st8" d="M678.49,415.77c4.13,6.33,13.05,9.95,19.87,13.25,4.66,2.25,10.46-2.45,13.85,10.24s-1.59,18.86-9.63,27.1l-3.61-1.81c28.33-38.53-26.9-22.3-24.08-50.58,2.14-2.19,3.42,1.75,3.61,1.81Z"/>
        <path class="st8" d="M448.48,378.44c.89,6.59-.3,13.84,1.2,21.07,3.65,17.56,14.65,33.06,32.51,37.93.46,2.79,4.55,3.77-.6,4.82-22.28.81-35.51-25.65-37.93-44.56-.05-.39.04-.81,0-1.2-.5-4.81-1.65-17.38,4.82-18.06Z"/>
        <path class="st9" d="M443.66,396.5c.04.4-.05.81,0,1.2-18.9,12.96-41.55,13.84-49.98,38.54-5.75-3.23-.79-14.56,1.81-18.67,7.73-12.2,34.3-20.55,48.17-21.07Z"/>
        <path class="st8" d="M712.21,465.14c3.85-4.73,9.11-12.55,9.63-18.67.47-5.48-3.91-16.05-3.61-16.86.5-1.38,22.21-10.52,24.08-16.26,3.85,12.89-13.33,17.87-14.45,21.07-5.46,15.63,4.73,18.11-15.66,30.71Z"/>
        <path class="st7" d="M560.47,339.9c2.85,4.38,7.15,7.96,8.43,13.85,2.71,12.52-3.91,33.27-18.06,35.53,2.76-8.58-3.33-1.55,0-7.23,14.77-7.09,15.33-28.99,6.02-40.94l3.61-1.2Z"/>
        <path class="st9" d="M556.86,341.11c9.31,11.96,8.75,33.86-6.02,40.94,13.83-23.58,8-35.24-14.45-48.77,8.23-2.73,15.46,1.38,20.47,7.83Z"/>
        <g>
          <path class="st4" d="M826.61,472.37c33.69,21.14,45.24,69.15,8.43,93.33,16.4,21.55,42.45,23,62.62,35.53,4.65,2.89,8.62,6.52,12.04,10.84l-60.81-27.7,12.64,24.08c1.94,13.02.8,28.27-10.24,37.33,6.55-17.85,6.87-32.6-4.21-48.77-33.54-48.94-125-16.32-154.14,24.08,5.54,4.24,9.69,7.6,13.25,13.85-24.06-17.06-61.36-17.74-84.9,1.2-4.16,3.35-14.89,12.74-12.64,18.06-1.17.94-7.04,8.6-7.83,8.43,9.77-18.87-10.42-42.33-26.49-50.58-33.92-17.41-93.14-8.95-111.99,27.7-48.61-44.97-135.34,32.84-62.02,65.63l-3.61.6c-69.25-23.56-5.74-102.46,49.98-84.3,3.1,1.01,12.47,8.54,13.25,8.43.72-.11,7.18-8.97,9.63-10.84,44.19-33.51,113.18-34.76,138.49,21.68,20.75-21.3,37.61-27.75,67.44-26.49,2.55.11,10.34,4.13,12.04,3.61,1.88-.57,21.54-21.7,28.9-26.49,39.73-25.86,56.2-21.38,98.75-28.9,47.93-8.48,46.5-63.53,10.24-86.71.03-1.92-3.75-2.41,1.2-3.61Z"/>
          <path class="st8" d="M816.37,563.89c3.18.63,14.15,10,18.67,11.44-10.92-2.19-18.85-10.5-30.71-7.83-1.17-2.72,11.43-3.74,12.04-3.61Z"/>
        </g>
        <path class="st7" d="M676.08,403.73c-2.89-7.53.52-8.03,1.2-13.85.05-.4-3.11-1.68-2.41-4.82,1.83-8.24,18.31-26.89,27.7-27.1,1.22-.03,4.13-.45,4.82.6-16.21,11.4-30.54,23.93-31.31,45.16Z"/>
      </g>
    </g>
  </g>
</svg>