<?xml version="1.0" encoding="UTF-8"?>
<svg id="Layer_1" xmlns="http://www.w3.org/2000/svg" version="1.1" xmlns:xlink="http://www.w3.org/1999/xlink" viewBox="0 0 1080 1080">
  <!-- Generator: Adobe Illustrator 29.4.0, SVG Export Plug-In . SVG Version: 2.1.0 Build 152)  -->
  <defs>
    <style>
      .st0 {
        fill: #fef2f0;
      }

      .st1 {
        fill: #e86e6e;
      }

      .st2 {
        fill: #be5656;
      }

      .st3 {
        fill: #f4827f;
      }

      .st4 {
        fill: #dc4f54;
      }

      .st5 {
        fill: #ffd5d0;
      }

      .st6 {
        fill: #cc6b69;
      }

      .st7 {
        fill: #fdc0bb;
      }

      .st8 {
        fill: #f99b91;
      }

      .st9 {
        fill: #ffe1d6;
      }

      .st10 {
        fill: #a03537;
      }

      .st11 {
        fill: url(#linear-gradient);
      }
    </style>
    <linearGradient id="linear-gradient" x1="569.78" y1="1029.77" x2="527.88" y2="411.89" gradientTransform="translate(0 1080) scale(1 -1)" gradientUnits="userSpaceOnUse">
      <stop offset="0" stop-color="#fecbbb"/>
      <stop offset="1" stop-color="#fca2a1"/>
    </linearGradient>
  </defs>
  <g id="Generative_Object">
    <path class="st4" d="M967.42,204.2c14.62,24.33,11.21,49.17,19.74,66.02,4.9,9.71,34.31,19.78,40.98,37.95,7.31,19.92-6.28,50.82-1.51,60.72,4.98,10.35,33.74,7.75,37.95,36.43,2.66,18.13-9.55,52.04-7.59,62.23.82,4.26,12.86,18.6,15.18,31.88,7.22,41.31-15.18,104.29-59.2,116.11-5.48,1.47-14.94-1.53-20.5,0-3.79,1.05-12.91,12.01-20.5,10.63-11.86-3.21-31.54-2.46-45.54-4.55l-46.3-18.21-5.31,2.28c.67.63,2.08,1.78,1.51,2.28-7.92,7.01-15.05,15.04-24.29,20.5l6.08,3.79c-.32.2-1.78-.23-1.51,1.51-4.25-.72-11.12-2.99-12.14,1.51-31.22,12.67-63.64,8.9-97.14,13.66l3.79-4.55c-18.15-6.11-33.18,3.16-49.33,9.11-30.26,11.14-61.99,28.13-95.63,28.84-35.07.73-63.35-26.63-90.31-21.25-3.35.67-47.27,30-58.44,34.92-3.74,1.65-9.53,5.65-10.63,6.08-56.15,21.83-146.78,20.85-193.53-21.25-18.25-16.42-24.21-33.55-31.88-56.17-57.6-9.48-110.63,10.9-160.9-27.33-31.01-23.58-48.65-58.81-52.37-97.14l13.66-2.28,9.11,38.71c18.1,50.89,77.86,73.66,128.27,63.75-5.58-2.81-16.56-28.44-18.21-28.84-.66-.16-8.81,5.91-12.14,6.08-1.05.05-2.09-3.04-2.28-3.04h1.51c26.47-17.44,43.52-46.7,14.42-71.34-15.92-13.49-33.18-11.24-47.05-19.74-5.28-3.23-11.57-12.74-15.93-17.46l34.16,14.42c30.44,4.45,59.87,3.33,76.65-25.8.52.14,1.17-.18,1.51,0-3.2,22.71-24.77,36.88-47.05,37.18,16.47,14.39,26.31,30.68,18.21,53.13-6.25,17.32-20.97,14.61-7.59,37.95,9.26,16.15,22.64,18.06,40.22,15.93,24.24-2.94,13.41-3.89,18.97-17.46,9.98-24.33,27.53-42.19,37.95-66.02,30.49-69.78,1.4-150.25-84.25-133.57-27.36,5.33-33.97,21.47-49.33,40.98,4.06-18.93,12.91-32.94,30.35-41.75-27.23,6.19-52.28-12.2-57.68-38.71.61-2.24-.61-2.62,1.51-6.08.83,20.84,33.5,36.58,52.37,33.39,49.91-8.43,113.49-55.59,81.21-112.32-5.92-10.41-11.28-13.31-21.25-18.97,4.71-2.43,7.75-1.3,12.14-.76,48.39,35.15,24.02,111.29-25.8,132.82,58.08,10.06,90.93,51.34,80.44,110.81-1.39,7.88-8.12,19.76-9.11,26.56-.18,1.17-1.46,4.2-.76,4.55l12.14-1.51,22.01-9.87c-13.03,18.68-28.51,12.31-44.02,29.6-15.16,16.92-31.07,47.71-31.88,70.59l7.59-18.21c-10.36,105.12,133.11,134.68,210.23,108.53,25.49-8.65,82.49-39.43,75.14-71.34,1.31-1.03.93-5.21,3.79-4.55-.32,3.04.3,5.05,2.28,7.59,9.69,60.64,98.14,50.24,141.93,34.92,7.92-2.77,59.32-28.84,59.96-34.16.11-.91-6.88-12.24-7.59-16.7-.86-5.45,1.71-13.27,1.51-15.93.74,1.36,2.02,3.52,3.04,4.55,1.76,39.67,67.66,40.71,94.86,33.39,11.55-3.11,47.36-24.39,53.89-34.16,9.21-13.78-1.05-27.49-1.51-41.75-.08-2.33-1.4-9.06,2.28-9.11,1.34,6.43,4.39,12.23,6.83,18.21,10.93,26.71,5.68,30.55,35.67,40.98,45.02,15.67,100.09,13.75,131.3-26.56,17.6-22.73,28.49-65.94,18.21-93.35-3.47-9.25-12.16-17.61-19.74-23.53h9.11c-.48-6.55,1.9-12.71,3.04-18.97,5.39-29.87,1.68-43.8-25.05-60.72-2.96.48-14.24,43.06-28.08,40.22,9.87-10.47,18.62-30.63,19.74-44.78,1.89-24.01-5.48-60.74-21.25-79.69-3.44-4.13-28.01-24.16-31.12-23.53-1.45.3-14.56,20.5-23.53,15.93,8.53-13.17,16.2-7.17,18.21-25.05,1.17-10.39-.96-16.31-3.04-25.8,25.61-3.98,16.07-13.17,7.59-29.6-.09-.18-1.37-5.26,1.51-3.79v.05Z"/>
    <path class="st1" d="M967.42,204.2c-2.9-1.46-1.61,3.62-1.51,3.79,8.48,16.42,18.02,25.61-7.59,29.6-7.65-34.88-40.59-66.43-77.42-66.79-2.85-.03-9.92,5.03-10.63,3.79,6.62-11.26,7.15-24.53-3.04-34.16-16.27-36.26-95.14-88.28-130.53-59.2-2.7,2.22-2.74,4.66-3.79,7.59-8.61-20.6-7.22-24.31-26.56-36.43-6.39-4-8.84-6.59-16.7-9.11-30.29-19.36-66.98-26.9-101.69-15.18-14.92,5.04-50.95,24.29-34.16,42.5-6.6-2.74-9.28-9.82-12.91-15.18-28.6-42.2-74.83-41.66-119.91-21.25-26.91,12.18-34.65,23.67-53.13,44.02-.53-2.42-4.56-2.42-6.08-3.04-53.83-22.05-152.03,22.66-153.31,87.28-5.76-2.11-9.98.05-15.18.76-1.94.26-4.16-.33-6.08,0-49.39,8.6-100.47,62.59-91.07,116.11-10.68,1.42-15.47.74-25.05,6.83-24.92,15.84-54.72,107.78-20.5,126.74-37.63,22.32-31.69,80.25-21.25,116.11.63,2.18,1,6.13,1.51,7.59l-9.11-38.71-13.66,2.28c-1.36-14.08-2.77-27.67,0-41.75,2.77-14.08,16.46-27.78,18.21-36.43,4.97-24.47-9.82-56.38-1.51-89.56,9.86-39.35,38.63-44.38,50.09-66.79,6.03-11.76,6.31-30.63,12.14-44.02,12.13-27.86,50.13-61.16,78.17-72.1,6.43-2.51,17.29-.78,24.29-4.55s19.5-34.15,26.56-43.26c19.69-25.4,69.45-49.64,100.94-50.85,13.22-.5,31.81,8.9,45.54,6.08,6.58-1.36,30.21-27.47,39.47-33.39,41.27-26.42,109.19-25.78,145.72,9.11,50.33-53.75,153.42-25.32,192.78,28.84,51.49-16.75,115.75,20.5,141.93,64.51,3.66,6.14,14.24,36.07,15.93,37.18.81.53,11.8.84,13.66,1.51,25.68,9.21,40.93,15.38,55.4,39.47v.04Z"/>
    <path class="st1" d="M513.56,620.11c7.35,31.9-49.65,62.7-75.14,71.34-77.12,26.15-220.58-3.4-210.23-108.53l-7.59,18.21c.81-22.86,16.7-53.67,31.88-70.59-11.94,45.58-9.77,85.23,29.6,115.36,68.85,52.69,169.04,23.57,231.49-25.8h0Z"/>
    <path class="st1" d="M715.44,591.27c.19,2.66-2.38,10.49-1.51,15.93.71,4.46,7.7,15.78,7.59,16.7-.64,5.31-52.04,31.39-59.96,34.16-43.79,15.33-132.22,25.73-141.93-34.92,40.56,51.93,171.29,23.1,193.53-39.47.05,2.34,2.19,6.35,2.28,7.59Z"/>
    <path class="st1" d="M874.83,562.43c37.22,41.56,77.47,43.8,126.74,21.25,40.8-18.67,55.12-57.96,58.44-100.18,10.27,27.42-.62,70.62-18.21,93.35-31.2,40.32-86.28,42.23-131.3,26.56-29.99-10.44-24.74-14.28-35.67-40.98h.01Z"/>
    <path class="st8" d="M263.11,507.79c1-6.81,7.71-18.68,9.11-26.56,10.49-59.47-22.37-100.75-80.44-110.81,49.83-21.53,74.19-97.67,25.8-132.82,32.36,3.95,45.36,54.69,39.47,82.72-2.6,12.31-21.53,37.47-19.74,47.05.37,1.95,21.79,23.72,25.8,30.35,18.86,31.21,28.5,83.44,0,110.05h0Z"/>
    <path class="st8" d="M252.48,515.38c-10.41,23.85-27.97,41.7-37.95,66.02-5.57,13.56,5.27,14.52-18.97,17.46-17.58,2.13-30.96.2-40.22-15.93-13.39-23.33,1.34-20.62,7.59-37.95,8.09-22.45-1.74-38.72-18.21-53.13,22.29-.32,43.86-14.48,47.05-37.18,5.82,3.03,4.46,21.98,3.04,28.08-2.24,9.57-14.47,20.29-15.18,22.76-2.42,8.47,1.7,24.87-1.51,36.43-1.82,6.54-14.95,19.97-15.18,21.25-1.29,7.06,20.72,21.06,26.56,22.01,28.56,4.63,19.75-11.48,29.6-29.6,6.91-12.71,22.84-29.84,33.39-40.22h0Z"/>
    <path class="st1" d="M718.48,595.82c37.47,37.86,136.07,14.32,147.24-42.5.48,14.26,10.74,27.97,1.51,41.75-6.54,9.77-42.34,31.05-53.89,34.16-27.2,7.32-93.11,6.26-94.86-33.39h0Z"/>
    <path class="st8" d="M190.25,454.66c-16.78,29.13-46.22,30.25-76.65,25.8l-34.16-14.42c4.37,4.71,10.65,14.22,15.93,17.46,13.88,8.48,31.13,6.25,47.05,19.74,29.1,24.64,12.05,53.9-14.42,71.34.1-5.17,6.66-9.09,3.04-13.66,14.76-8.52,16.7-35.78,9.11-48.58-14.05-23.68-67.6-13.98-77.42-38.71-12.87-32.42,21.54-8.95,29.6-6.83,18.49,4.85,45.23,4.68,63.75,0,10.63-2.68,26.12-14.19,34.16-12.14h0Z"/>
    <path class="st3" d="M126.5,574.57c.19,0,1.24,3.09,2.28,3.04,3.33-.15,11.48-6.23,12.14-6.08,1.66.4,12.63,26.03,18.21,28.84-50.41,9.91-110.17-12.87-128.27-63.75-.52-1.46-.88-5.41-1.51-7.59,14.07,16.32,23.5,31.21,44.78,39.47,19.94,7.73,32.26,6.35,52.37,6.08h-.01Z"/>
    <path class="st8" d="M93.11,336.26c9.37-15.2,11.53,9.31,18.97,13.66,26.9,15.73,88.45-5.32,107.01-29.6,16.97-22.2,12.23-37.54,7.59-63,32.29,56.73-31.28,103.9-81.21,112.32-18.86,3.19-51.54-12.57-52.37-33.39h.01Z"/>
    <path class="st9" d="M958.31,237.59c2.08,9.49,4.21,15.42,3.04,25.8-6.52-.32.3-7.74-1.51-11.38-1.27-2.57-3.87,3.15-7.59-1.51-3.95-4.95-5.53-25.34-15.18-36.43-10.84-12.48-61.11-28.11-60.72-33.39.08-1.1,8.05-5.61,4.55-9.87,36.83.37,69.77,31.92,77.42,66.79h-.01Z"/>
    <path class="st8" d="M1019.03,375.73c-1.11,14.16-9.87,34.3-19.74,44.78,13.83,2.82,25.12-39.74,28.08-40.22,26.72,16.92,30.44,30.84,25.05,60.72-.84-13.23-12.79-41.1-29.6-36.43-2.03.57-26.94,34.92-32.63,17.46-3.21-9.87,26.73-35.39,24.29-50.09l4.55,3.79h0Z"/>
    <path class="st8" d="M118.91,422.78c-4.56-2.48-2.77-12.24-6.08-18.97-10.56-21.62-30.53-27.07-21.25-61.47,5.39,26.5,30.47,44.9,57.68,38.71-17.46,8.8-26.29,22.8-30.35,41.75h0Z"/>
    <path class="st9" d="M867.24,140.45c3.98,8.87,5.79,10.4-.76,18.21-29.27-45.39-78.93-66-129.78-77.42,35.39-29.08,114.27,22.94,130.53,59.2Z"/>
    <path class="st9" d="M540.89,55.44c-3.59,2.71-3.78,1.3-6.83,0-41.41-17.71-54.38-33.29-101.69-10.63-8.39,4.02-46.75,33.89-50.09,33.39-.67-.1-2.7-3.1-3.79-3.79,10.55-17.26,28.59-26.36,42.5-40.22,45.07-20.41,91.31-20.95,119.91,21.25Z"/>
    <path class="st9" d="M689.64,43.3c7.85,2.52,10.31,5.1,16.7,9.11l4.55,9.87c-45.86-20.5-101.53-31.26-149.52-6.83,5.56-7.39,21.16-20.22,29.6-22.76,21.08-6.38,76.94,3.66,98.67,10.63h0Z"/>
    <path class="st9" d="M689.64,43.3c-21.73-6.97-77.59-17-98.67-10.63l-3.04-4.55c34.73-11.72,71.41-4.18,101.69,15.18h.01Z"/>
    <g>
      <path class="st10" d="M606.16,682.34c1.78,7.71-6,1.55-6.08,7.59-1.71.13-10.39,2.38-12.14,3.04-2.02-3.15-8.57-1.94-9.11,1.51-4.63-2.85-10.6-3.37-15.93-3.04-1.03.54,1.61,11.48,2.28,13.66,2.28,7.49,10.97,18.89,16.7,24.29l-4.55,3.04c-3.64-3.38-8.32-5.99-12.14-9.87-8.27-8.39-12.16-24.06-25.05-26.56-6.74-1.31-26.55,2.27-28.84,1.51-1.18-.39-2.31-8.46-13.66-7.59-5.17.39-31.71,15.01-34.16,19.74-5.95.25-2.79-10.32-6.08-13.66,11.17-4.92,55.1-34.25,58.44-34.92,26.96-5.38,55.25,21.98,90.31,21.25h0Z"/>
      <path class="st1" d="M844.46,635.28l97.14,21.25c-2.19.59-11.38,6.58-15.93,7.59-37.05,8.26-72.79-17.22-106.26-15.18-9.38.57-25.74,7.29-35.67,8.34,2.9.82,4.25,6.55,4.55,6.83-3.6-2.34-7.76-7.39-8.34-7.59-7.71-2.68-38.05,6.83-47.81,7.59-3.66-1.5-7.06-2.84-10.63-4.55-3.45-7.85,20.6-9.88,25.8-10.63,33.5-4.76,65.92-1,97.14-13.66Z"/>
      <path class="st6" d="M876.34,607.97c15.63,10.02,32.49,11.03,50.09,13.66,13.99,2.09,33.68,1.34,45.54,4.55,2.9.79,11.16,3.97,12.14,6.83,5.38,15.59-33.35,15.59-42.5,14.42-25.68-3.29-59.8-30.91-83.48-15.18l-6.08-3.79c9.24-5.46,16.37-13.47,24.29-20.5Z"/>
      <path class="st8" d="M941.61,647.44c-28.85,4.05-57.15-8.92-85.01-13.66-.25-1.74,1.21-1.31,1.51-1.51,23.68-15.72,57.82,11.89,83.48,15.18h.01Z"/>
      <path class="st6" d="M747.32,648.95c-5.21.74-29.27,2.76-25.8,10.63-8.02-3.86-8.72-10.41-19.74-6.08,16.16-5.95,31.18-15.23,49.33-9.11l-3.79,4.55h0Z"/>
      <path class="st10" d="M926.43,621.62c-17.6-2.63-34.46-3.64-50.09-13.66.57-.5-.86-1.64-1.51-2.28l5.31-2.28,46.3,18.21h0Z"/>
      <path class="st8" d="M598.57,859.94c-27.39-1.54-22.46-25.49-31.88-46.3-3.5-7.75-11.56-24.28-16.7-30.35-21.63-25.57-83.93-26.92-86.52-69.06,17.5,1,32.44-8.36,47.81-15.18,7.52,32.39,27.25,43.78,54.64,57.68,9.83,4.99,38.87,10.99,43.26,20.5,6.54,14.16-11.91,64.66-10.63,82.72h.01Z"/>
      <path class="st6" d="M577.32,732.43c21.35,19.76,41.26,31,68.3,41.75,0,34.68,1.34,88.47-47.05,85.76-1.29-18.06,17.17-68.57,10.63-82.72-4.39-9.5-33.43-15.5-43.26-20.5-27.39-13.9-47.12-25.29-54.64-57.68-15.38,6.82-30.33,16.17-47.81,15.18-.03-.34-2.47.23,0-4.55s28.99-19.34,34.16-19.74c11.36-.87,12.48,7.21,13.66,7.59,2.29.74,22.11-2.82,28.84-1.51,12.88,2.51,16.78,18.16,25.05,26.56,3.82,3.88,8.5,6.49,12.14,9.87h-.01Z"/>
      <path class="st1" d="M581.87,729.39c-5.72-5.39-14.41-16.8-16.7-24.29l24.29,3.04c.25.28-.25,1.25,0,1.51,15.52,16.93,32.36,31.51,56.17,36.43,49.32,27.07,53.99,14.02,103.98,10.63,50.62-3.43,92.83-.89,141.16-21.25,23.92-10.07,43.89-27.63,66.79-39.47-58.91,63.75-162.21,81.78-245.91,77.42-39.31-2.05-100.31-16.26-129.78-44.02h0Z"/>
      <path class="st8" d="M788.31,664.12c-.3-.28-1.66-6.01-4.55-6.83,9.93-1.06,26.29-7.78,35.67-8.34,33.47-2.03,69.2,23.43,106.26,15.18,4.55-1.01,13.74-7,15.93-7.59.15-.04-.55-2.67.76-3.04,1.44-.39,11.36,1.02,15.18,0,2.63-.71,24.2-8.52,25.05-6.83-44.72,26.48-106.88,41.36-158.62,31.12-6.42-1.27-31.42-9.84-35.67-13.66h0Z"/>
      <path class="st8" d="M601.61,711.18l25.8-9.11c38.18,18.39,74.12,46.08,117.64,50.09-10.36,4.6-33.47,6.79-47.05,6.08-35.07-1.88-69.23-26.29-96.39-47.05Z"/>
      <path class="st8" d="M788.31,664.12c6.71,4.35,12.74,12.08,22.76,14.42-27.57,3.52-53.94-4.17-78.93-14.42,9.77-.76,40.11-10.27,47.81-7.59.58.2,4.74,5.24,8.34,7.59h.01Z"/>
      <path class="st6" d="M627.41,702.08l-25.8,9.11c-6.71-5.13-13.73-9.92-19.74-15.93.25-1.11,5-1.88,6.08-2.28,1.75-.66,10.42-2.91,12.14-3.04,12.01-.86,16.94,7.15,27.33,12.14h0Z"/>
      <g>
        <path class="st10" d="M1012.95,615.56c-25.76,39.06-39.29,77.28-75.14,109.3-74.05,66.11-191.04,67.99-283.85,50.09-2.27,17.19.72,34.27-2.28,51.6-3.23,18.65-13.69,35.37-32.63,40.98-44.43,13.16-45.02-16.66-63-45.54-4.34-6.96-7.2-15.28-12.14-22.01-29.9-40.7-93.8-41.13-97.14-97.9,1.1-.43,6.88-4.42,10.63-6.08,3.28,3.34.11,13.9,6.08,13.66-2.47,4.78-.03,4.21,0,4.55,2.58,42.14,64.89,43.5,86.52,69.06,5.14,6.08,13.2,22.61,16.7,30.35,9.42,20.81,4.49,44.76,31.88,46.3,48.4,2.71,47.05-51.07,47.05-85.76-27.05-10.75-46.95-21.98-68.3-41.75l4.55-3.04c29.47,27.76,90.46,41.97,129.78,44.02,83.7,4.36,186.99-13.65,245.91-77.42-22.89,11.84-42.86,29.39-66.79,39.47-48.34,20.36-90.54,17.81-141.16,21.25-49.99,3.39-54.65,16.45-103.98-10.63-19.5-10.7-36.45-26.08-56.17-36.43-.25-.28.25-1.24,0-1.51-2.39-2.67-9.08-12.71-10.63-13.66.53-3.45,7.1-4.68,9.11-1.51-1.07.4-5.82,1.17-6.08,2.28,6,6.03,13.02,10.81,19.74,15.93,27.15,20.76,61.32,45.18,96.39,47.05,13.59.73,36.69-1.47,47.05-6.08-43.52-4.01-79.46-31.7-117.64-50.09-10.37-5-15.31-13-27.33-12.14.08-6.04,7.85.13,6.08-7.59,33.63-.71,65.37-17.7,95.63-28.84,11-4.34,11.72,2.22,19.74,6.08,3.57,1.71,6.97,3.05,10.63,4.55,25,10.25,51.36,17.94,78.93,14.42-10.02-2.34-16.07-10.07-22.76-14.42,4.25,3.81,29.24,12.39,35.67,13.66,51.75,10.24,113.9-4.64,158.62-31.12-.84-1.69-22.41,6.13-25.05,6.83-3.82,1.02-13.75-.39-15.18,0-1.31.37-.61,3-.76,3.04l-97.14-21.25c1.02-4.51,7.9-2.24,12.14-1.51,27.86,4.74,56.15,17.71,85.01,13.66,9.14,1.17,47.89,1.17,42.5-14.42-.98-2.85-9.24-6.04-12.14-6.83,7.58,1.39,16.7-9.58,20.5-10.63,5.56-1.53,15.01,1.47,20.5,0h-.04Z"/>
        <g>
          <path class="st8" d="M636.51,700.55l37.95-12.14c42.62,21.34,176.87,18.52,225.41,7.59,23.22-5.23,46.9-14.57,69.82-21.25,5.31.72-5.42,15.2-7.59,16.7-3.97,2.74-53.92,22.39-60.72,24.29-53.23,14.89-214.41,7.03-264.88-15.18h0Z"/>
          <path class="st8" d="M685.09,688.41l37.95-21.25c49.75,17.96,94.96,20.39,147.99,16.7,36.62-2.56,78.24-11.79,109.3-31.88-2.63,6.82-5.82,17.41-12.14,21.25-4.15,2.52-78.59,21.11-88.04,22.76-32.41,5.68-168.45,5.12-195.05-7.59h-.01Z"/>
          <path class="st8" d="M924.16,709.66c1.05-.19,3.44-.33,3.79.76-78.33,48.33-186.79,55.98-265.63,4.55,69.98,7.36,157.92,24.69,226.92,8.34,10.05-2.38,27.54-12.3,34.92-13.66h0Z"/>
          <path class="st1" d="M674.46,688.41l-37.95,12.14c-7.83-3.44-18.63-9.48-25.05-15.18,11.97,2.67,39.36-10.76,48.58-9.11,2.96.53,12.96,11.41,14.42,12.14h0Z"/>
          <path class="st1" d="M723.03,667.16l-37.95,21.25c-1.68-.79-19.79-14.13-18.97-15.18,8.45-.62,38.63-15.58,44.02-15.18,1.97.15,11.66,8.66,12.91,9.11h0Z"/>
          <path class="st8" d="M645.62,746.09c-23.81-4.93-40.65-19.5-56.17-36.43,19.71,10.35,36.67,25.73,56.17,36.43Z"/>
        </g>
      </g>
      <path class="st2" d="M578.83,694.49c1.55.96,8.23,10.99,10.63,13.66l-24.29-3.04c-.67-2.18-3.3-13.12-2.28-13.66,5.34-.34,11.31.19,15.93,3.04h.01Z"/>
    </g>
    <path class="st7" d="M131.05,560.9c-4.69,2.71-19.13,5.03-19.74-.76-.14-1.4,13.45-15.45,16.7-22.76,3.57-8.02-1.78-21.23,12.14-25.05,7.6,12.79,5.66,40.05-9.11,48.58h.01Z"/>
    <g>
      <path class="st11" d="M590.98,32.68c-8.43,2.56-24.05,15.38-29.6,22.76,47.99-24.44,103.66-13.66,149.52,6.83l-4.55-9.87c19.35,12.11,17.95,15.83,26.56,36.43,1.06-2.94,1.1-5.37,3.79-7.59,50.86,11.41,100.51,32.03,129.78,77.42,6.54-7.81,4.74-9.34.76-18.21,10.18,9.62,9.66,22.9,3.04,34.16.71,1.24,7.76-3.82,10.63-3.79,3.5,4.25-4.47,8.76-4.55,9.87-.39,5.28,49.88,20.92,60.72,33.39,9.64,11.09,11.23,31.47,15.18,36.43,3.72,4.68,6.31-1.05,7.59,1.51,1.82,3.66-4.99,11.07,1.51,11.38-2.02,17.87-9.68,11.87-18.21,25.05,8.96,4.55,22.07-15.64,23.53-15.93,3.11-.63,27.68,19.4,31.12,23.53,15.77,18.94,23.13,55.68,21.25,79.69l-4.55-3.79c2.46,14.7-27.5,40.22-24.29,50.09,5.7,17.46,30.6-16.89,32.63-17.46,16.8-4.66,28.75,23.19,29.6,36.43-1.13,6.26-3.52,12.42-3.04,18.97h-9.11c7.56,5.91,16.27,14.27,19.74,23.53-3.32,42.23-17.63,81.51-58.44,100.18-49.27,22.55-89.52,20.31-126.74-21.25-2.45-5.99-5.5-11.79-6.83-18.21-3.68.05-2.36,6.77-2.28,9.11-11.17,56.82-109.76,80.37-147.24,42.5-1.02-1.03-2.29-3.19-3.04-4.55-.09-1.24-2.22-5.24-2.28-7.59-22.25,62.57-152.97,91.4-193.53,39.47-1.98-2.53-2.58-4.55-2.28-7.59-2.86-.64-2.48,3.52-3.79,4.55-62.44,49.37-162.63,78.5-231.49,25.8-39.36-30.13-41.53-69.78-29.6-115.36,15.5-17.29,30.99-10.92,44.02-29.6l-22.01,9.87-12.14,1.51c-.71-.35.59-3.39.76-4.55,28.5-26.6,18.86-78.84,0-110.05-4.01-6.64-25.44-28.4-25.8-30.35-1.79-9.58,17.14-34.74,19.74-47.05,5.9-28.03-7.11-78.78-39.47-82.72-4.39-.54-7.44-1.68-12.14.76,9.97,5.67,15.33,8.56,21.25,18.97,4.64,25.45,9.38,40.79-7.59,63-18.55,24.28-80.12,45.33-107.01,29.6-7.44-4.35-9.62-28.86-18.97-13.66-2.13,3.45-.91,3.82-1.51,6.08-9.28,34.4,10.69,39.86,21.25,61.47,3.29,6.74,1.5,16.49,6.08,18.97,15.37-19.51,21.96-35.66,49.33-40.98,85.64-16.68,114.73,63.79,84.25,133.57-10.55,10.4-26.48,27.52-33.39,40.22-9.84,18.11-1.05,34.22-29.6,29.6-5.85-.95-27.84-14.95-26.56-22.01.23-1.29,13.36-14.71,15.18-21.25,3.21-11.56-.91-27.96,1.51-36.43.71-2.47,12.93-13.21,15.18-22.76,1.44-6.1,2.79-25.06-3.04-28.08-.34-.18-1,.14-1.51,0-8.04-2.04-23.52,9.47-34.16,12.14-18.53,4.68-45.26,4.85-63.75,0-8.05-2.12-42.47-25.59-29.6,6.83,9.82,24.73,63.35,15.02,77.42,38.71-13.93,3.82-8.58,17.03-12.14,25.05-3.25,7.31-16.84,21.36-16.7,22.76.59,5.79,15.04,3.47,19.74.76,3.62,4.56-2.94,8.5-3.04,13.66h-1.51c-20.12.28-32.43,1.66-52.37-6.08-21.28-8.26-30.71-23.14-44.78-39.47-10.44-35.87-16.37-93.79,21.25-116.11-34.22-18.96-4.42-110.91,20.5-126.74,9.58-6.09,14.37-5.41,25.05-6.83-9.39-53.53,41.68-107.52,91.07-116.11-41.31,15.79-86.08,58.52-81.21,106.26,5.67-31.21,24.98-58.49,50.09-77.42,11-8.29,37.22-16.23,37.18-28.84,5.19-.71,9.42-2.86,15.18-.76,1.29-64.62,99.48-109.33,153.31-87.27-54.43-2.58-111.83,13.22-137.37,65.27,25.89-23.44,71.7-49.8,106.26-56.17,10.44-1.92,28.65.98,33.39,0s3.55-5.81,3.79-6.08c18.48-20.36,26.22-31.84,53.13-44.02-13.92,13.87-31.95,22.97-42.5,40.22,1.1.69,3.13,3.69,3.79,3.79,3.34.5,41.7-29.37,50.09-33.39,47.32-22.66,60.3-7.08,101.69,10.63,3.05,1.3,3.24,2.71,6.83,0,3.63,5.36,6.3,12.44,12.91,15.18-16.79-18.21,19.23-37.46,34.16-42.5l3.04,4.55h-.04Z"/>
      <g>
        <path class="st9" d="M361.78,75.18c1.5.62,5.55.62,6.08,3.04-.24.26,1.13,5.04-3.79,6.08s-22.95-1.92-33.39,0c-34.55,6.37-80.37,32.72-106.26,56.17,25.54-52.04,82.94-67.85,137.37-65.27h0Z"/>
        <path class="st9" d="M193.28,163.21c.04,12.6-26.18,20.55-37.18,28.84-25.11,18.92-44.42,46.21-50.09,77.42-4.87-47.72,39.91-90.45,81.21-106.26,1.92-.33,4.12.26,6.08,0h-.01Z"/>
        <path class="st8" d="M358.74,645.91c-61.52-3.49-55.37-75.77-9.87-104.73,37.1-23.61,53.96-11.48,88.04-15.18,4.21-.45,22.64-13.12,28.84-15.18,45.12-14.92,93.58-16.17,135.1,9.11,6.08,3.69,27.01,23.85,28.84,24.29,3.55.86,46.99-19.08,57.68-21.25s27.14.45,34.92-1.51c5.48-1.39,57.19-45.05,75.89-53.13,26.62-11.5,84.09-13.83,100.18-27.33,14.12-11.84,20.33-39.44,15.93-56.92-2.63-10.49-15.3-19.56-15.18-28.08,45.7,29.22,47.52,98.61-12.91,109.3-53.63,9.48-74.39,3.83-124.47,36.43-9.29,6.05-34.06,32.67-36.43,33.39-2.14.66-11.96-4.41-15.18-4.55-37.59-1.59-58.85,6.54-85.01,33.39-31.9-71.14-118.86-69.57-174.56-27.33-3.1,2.34-11.24,13.52-12.14,13.66-.98.14-12.79-9.35-16.7-10.63-70.23-22.9-150.27,76.56-63,106.26h.01Z"/>
        <path class="st8" d="M809.56,406.08c20.73-44.81,56.04-68.96,50.09-125.23-3.54-33.47-33.78-65.76-66.02-73.62-7.5-1.83-33.39-1.61-37.18-5.31-4.74-4.61-7.65-46.3-13.66-59.2-16.27-34.94-62.15-55.1-97.9-38.71-3.5,1.6-8.89,10.68-12.14,10.63-2.28-.04-33.09-24.06-33.39-30.35l.76,8.34c6.77,10.39,29.67,22.11,31.88,32.63.39,1.87-.87,3.91,1.51,5.31-7.78,2.42-5.56-7.02-6.08-7.59-9.58-10.44-16.61-5.9-25.8-24.29-2.04-4.08-14.62-16.76.76-15.93.96.29,5.91,8.9,9.11,10.63,20.56,11.12,27.48-.43,44.02-3.04,67.42-10.65,92.81,26.92,116.11,82.72,1.07,2.57,1.59,13.1,3.04,15.18,1.7,2.43,44.05,21.25,52.37,28.08,35.02,28.73,57.59,89.7,28.08,129.78l-45.54,59.96h-.01Z"/>
        <path class="st4" d="M809.56,406.08c-2.57,5.56-3.15,12.42-6.08,18.21-1.59.16-4.51-4.94-4.55-5.31-2.61-24.1,49.15-72.79,53.13-106.26,4.01-33.72-12.84-72.73-44.02-87.27-25.9-12.08-63.16-10.59-80.44,14.42-6.73,9.73-6.79,20.46-10.63,27.33-2.21,3.96-3.74.32-4.55.76-.15-1.22-1.05-1.79-1.51-3.04.97-26.76,19.03-42.55,39.47-56.92-.87-1.32-4.54-.79-6.08-.76-2.03-23.1-2.63-44.42-13.66-65.27-17.48-33.05-57.63-49.35-90.31-27.33-2.76,1.85-9.39,6.45-8.34,10.63-2.21-10.52-25.11-22.25-31.88-32.63l-.76-8.34c.3,6.29,31.12,30.31,33.39,30.35,3.25.05,8.65-9.02,12.14-10.63,35.75-16.39,81.63,3.77,97.9,38.71,6.01,12.89,8.92,54.59,13.66,59.2,3.81,3.71,29.68,3.48,37.18,5.31,32.24,7.85,62.48,40.15,66.02,73.62,5.96,56.27-29.36,80.42-50.09,125.23h0Z"/>
        <path class="st4" d="M660.8,167.78c-.13,1.49-1.11,6.29-1.51,7.59-4.97,15.66-25.75,30.57-40.22,36.43-3.42,1.39-17.44,2.52-18.21,3.04-1.42.95-6.06,25.98-9.87,32.63-16.98,29.71-64.44,30.87-71.34-6.83-1.32-7.21-1.85-11.63,0-18.97,3.4-2.68,2.31,1.93,4.55,2.28-2.16,51.78,55.69,35.89,60.72-3.79,6.74-53.19-46.88-63.12-54.64-103.98-.4-2.14-1.61-11.76-1.51-13.66,6.21,7.66,6.59,19.42,12.14,28.08,14.66,22.84,54.15,41.7,58.44,76.65,28.37-2.89,43.57-20.07,61.47-39.47Z"/>
        <path class="st8" d="M510.53,160.19c-57.41,6.13-64.02,48.06-100.94,74.38-20.03,14.28-46.6,17.19-66.79,31.88-14.47,1.9-30.63-16.5-34.16-28.84,6.97-2.41,26.43,6.28,40.22,4.55,7.9-.98,54.93-16.85,60.72-21.25,10.03-7.64,13.29-20,20.5-28.08,23.79-26.67,59.49-39.94,94.86-38.71l-14.42,6.08h.01Z"/>
        <path class="st8" d="M519.64,240.63c6.91,37.7,54.36,36.54,71.34,6.83,3.81-6.66,8.45-31.69,9.87-32.63.77-.52,14.8-1.65,18.21-3.04,14.48-5.86,35.27-20.79,40.22-36.43,6.96,16.7-10.79,42.02-25.05,51.6-3.53,2.37-17.52,5.42-18.21,6.08-1.16,1.08-6.35,22.68-11.38,29.6-16.31,22.45-52.78,24.29-75.14,9.87-7.5-4.83-22.36-24.49-9.87-31.88h0Z"/>
        <path class="st5" d="M529.5,527.51c22.52-1.56,48.48,2.61,61.47,23.53,2.09,3.38,6.86,12.58,3.79,14.42-34.6-49.07-127.95-33.14-144.2,24.29-7.63,4.1-24.48-13.46-31.88-16.7-37.34-16.32-78.06,8.48-64.51,50.85-3.67,6.24-10.5-11.26-10.63-12.14-5.84-39.59,44.82-58.74,76.65-53.89,8.1,1.24,22.89,14.22,25.8,13.66,1.84-.35,21.02-21.82,27.33-25.8,12.69-8.03,41.36-17.19,56.17-18.21h0Z"/>
        <path class="st4" d="M510.53,160.19c6.21-.67,32.52-1.01,35.67,3.04l-1.51,3.04c-75.2-21.23-162.69,98.88-75.89,139.65,1.97,2.11-2.29,1.39-2.28,1.51-22.51-6.15-36.39-25.68-40.98-47.81-1.89-9.13-.4-18.25-1.51-26.56-.18-1.3.62-4.05-.76-4.55-18.58,26.12-70.76,26.32-79.69,59.96-5.41,20.34,3.26,26.02,19.74,31.12-3.33,7.9-19.06-3.6-21.25-6.83-11.57-17.02,2.75-37.8,1.51-39.47-.61-.81-13.12-2.9-18.97-6.83-7.97-5.36-15.59-17.96-17.46-27.33.09-.06-.58-.79,1.51-1.51,3.53,12.34,19.68,30.74,34.16,28.84,20.19-14.68,46.75-17.6,66.79-31.88,36.92-26.31,43.52-68.25,100.94-74.38h-.03Z"/>
        <path class="st8" d="M469.55,94.91c-38.85,23.46-91.12-4.34-135.1,52.37-6.87,8.85-9.06,25.52-20.5,29.6-18.64,6.64-39.76-12.53-47.05-10.63l-1.51,3.04c16.22,10.46,34.49,22.99,53.13,10.63.08,5.66-.3,9.38.76,15.18.69,3.81,2.33,7.25,1.51,11.38l6.83,9.87c-7.5-.21-9.55-14.16-10.63-15.18-3.2-3.05-28.78-2.84-36.43-6.08-8.58-3.63-24.52-23.73-15.18-31.88,7.03-6.14,6.66,1.46,7.59,1.51,10.26.68,20.5,6.58,30.35,4.55s34.71-36.38,47.05-45.54c31.55-23.42,61.7-23.81,98.67-28.84,5.34-.73,23.65-10.35,20.5,0h0Z"/>
        <path class="st5" d="M803.49,424.29c-.97,1.94-3.3,8.53-5.31,9.11-1.99.43-4.49-.38-5.31-2.28-10.78-24.83,39.05-87.75,44.02-116.88.16-.98,1.82-25.17-3.04-17.46-.14-16.69-6.09-29.81-9.11-45.54,19.02,12.04-10.07-23.19-16.7-25.8,31.18,14.55,48.02,53.56,44.02,87.27-3.97,33.47-55.74,82.16-53.13,106.26.04.37,2.96,5.48,4.55,5.31h.01Z"/>
        <path class="st8" d="M363.29,319.56c3.5,1.08,5.47,0,7.59,2.28-12.06,14.5-36.54,5.16-45.54-9.11-2.74-4.34-4.8-16.23-6.08-18.21-3.63-5.65-14.05-8.29-18.21-15.18-7.42-12.28-6.08-32.34,6.08-40.22,1.87,9.35,9.49,21.96,17.46,27.33,5.85,3.93,18.38,6.03,18.97,6.83,1.24,1.66-13.08,22.45-1.51,39.47,2.19,3.23,17.92,14.73,21.25,6.83h0Z"/>
        <path class="st8" d="M990.19,513.85c-25.42-15.78-58.26-17.62-78.93-44.78,46.4-30.48,31.84-90.99-10.63-117.64,17.1-4.16,43.84,27.84,47.05,43.26,7.05,33.72-10.8,44.65-13.66,66.79-3.54,27.43,31.92,29.73,49.33,41.75,1.61,1.12,10.32,7.4,6.83,10.63h0Z"/>
        <path class="st9" d="M839.16,489.56c40.93-3.38,94.37,13.13,82.72,64.51-4.16,3.79-6.88-13.73-7.59-15.18-21.93-44.57-52.17-52.02-97.9-34.16-22.66,8.85-34.41,25.52-51.6,40.98,4.64-35.29,42.33-53.52,74.38-56.17h-.01Z"/>
        <path class="st8" d="M530.27,116.16c7.78,40.85,61.38,50.78,54.64,103.98-5.03,39.68-62.87,55.57-60.72,3.79,1.34.2,2.41-2.56,3.79-1.51,8.65,6.5,4.75,27.52,25.05,24.29,17.84-2.84,26.18-29,22.76-44.78-1.61-7.42-7.03-11.94-10.63-17.46-9.38-14.41-25.76-32.12-33.39-46.3-2.24-4.17-13.02-27.96-1.51-22.01h0Z"/>
        <path class="st4" d="M425.52,113.12c-15.76,3.15-30.57,2.87-46.3,9.11-29.95,11.86-53.95,41.24-59.96,72.86-1.06-5.8-.68-9.52-.76-15.18-18.64,12.37-36.91-.16-53.13-10.63l1.51-3.04c7.3-1.9,28.42,17.27,47.05,10.63,11.43-4.07,13.63-20.75,20.5-29.6,43.98-56.71,96.24-28.9,135.1-52.37,5.84-3.53,9.2-10.21,13.66-13.66-3.87,29.44-35.95,27.53-57.68,31.88h0Z"/>
        <path class="st8" d="M660.8,167.78c-17.9,19.4-33.1,36.58-61.47,39.47-4.29-34.97-43.79-53.81-58.44-76.65-5.56-8.66-5.92-20.42-12.14-28.08.1-2.13,1.9-16.1,6.08-14.42-.58,33.89,23.46,45.97,42.5,66.79,4.9,5.37,28.13,37.93,31.12,38.71,14.76,3.86,45.55-23.23,50.09-37.95,3.59-.1,2.47,9.76,2.28,12.14h-.03Z"/>
        <path class="st0" d="M276.02,532.06c2.75-.28,8.53-.74,9.87,2.28,1.4,3.18-6.42,66.41-20.5,61.47-21.69-12.68-13.84-61.25,10.63-63.75h0Z"/>
        <path class="st9" d="M824.74,251.26c3.01,15.73,8.96,28.84,9.11,45.54.03,2.37-.98,16.75-2.28,16.7-4.01-17.24-.52-30.07-9.87-47.81-21.2-40.2-69.65-35.81-91.07,1.51,7.31-35.09,49.52-54.64,79.69-32.63,5.43,3.96,10.71,14.34,14.42,16.7h0Z"/>
        <path class="st9" d="M491.56,198.13c37.75-4.12-4.01,10.47-12.14,16.7-24.13,18.47-33.14,50.12-15.93,76.65-12.55-1.7-20.5-30.1-19.74-42.5,1.36-22,25.4-48.4,47.81-50.85h0Z"/>
        <path class="st8" d="M744.28,207.24c-11.82.25-32.6,23.76-34.92,34.16-.88,3.96,3.1,5.57,3.04,6.08-.86,7.34-5.17,7.97-1.51,17.46.48,1.24,1.37,1.82,1.51,3.04-2.84,1.58-7.16.89-10.63,5.31-5.03-18.5-2.27-42.43,10.63-57.68,5.16-6.1,23.76-15.31,24.29-16.7,1.21-3.18-2.12-28.16-3.04-33.39-1.22-6.89-11-20.41-3.04-23.53,11.03,20.85,11.63,42.16,13.66,65.27h0Z"/>
        <path class="st8" d="M425.52,113.12c21.74-4.35,53.81-2.43,57.68-31.88,1.8-1.4,3.74-2.84,5.31-4.55,12.59,8.79-17.42,34.07-17.46,38.71-.03,2.96,12.44,15.62,9.11,27.33-5.27,18.5-22.46-15.04-28.08-18.97-7.87-5.51-19.13-5.36-26.56-10.63h0Z"/>
        <path class="st9" d="M175.83,392.42c14.58-1.65,36.89,2.31,50.09,9.11,8.37,4.31,24.83,18.39,23.53,28.08-34.08-37.06-88.71-38.63-119.15,3.79-4.02-21.05,27.73-38.96,45.54-40.98h-.01Z"/>
        <path class="st4" d="M794.37,277.06c-2.37,7.22-29.72,18.76-30.35,20.5-.37,1.02,5.14,14.34,4.55,21.25-.67,7.71-7.3,17.57-12.14,23.53-5.63,3.48-11.6,6.05-17.46,9.11-2.5-4.5,2.17-4.37,5.31-7.59,10.13-10.37,16.31-18.52,12.14-34.16-4.17-15.64-11.58-10.06-17.46-12.91-8.6-4.16-19.84-8.72-25.05-16.7,26.46,7.31,37.88,19.15,67.55,3.04,5.91-3.21,9.86-16.27,12.91-6.08h0Z"/>
        <path class="st8" d="M748.84,556.35c.89,1.58,7.21,9.01,2.28,10.63-35.84-39.6-90.68-14.24-125.23,13.66-2.82-6.71,10.69-18.54,15.93-22.76,29.66-23.89,76.67-23.02,107.01-1.51h0Z"/>
        <path class="st9" d="M406.55,128.31c12.96-1.55,31.42-.74,41.75,8.34-.09,2.76-33.14.24-37.18.76-27.74,3.52-57.96,26.73-63.75,54.64-5.32-30,31.64-60.45,59.2-63.75h-.01Z"/>
        <path class="st8" d="M1005.36,527.51c2.26,2.86,10.21,8.47,5.31,13.66-16.47-19.25-42.52-18.63-66.02-18.21l-15.93-30.35,76.65,34.92h0Z"/>
        <path class="st9" d="M194.05,245.18c39.5,20.31,17.22,87.74-24.29,92.59,6.25-9.05,18.49-14.19,25.05-23.53,15.73-22.4,13.12-46.69-.76-69.06h0Z"/>
        <path class="st9" d="M676.74,125.27c35.6,2.7,61.06,32.47,50.09,68.3-10.98-21.92-14.51-44.66-36.43-59.2-1.18-.79-20.46-6.19-13.66-9.11h0Z"/>
        <path class="st9" d="M972.73,293.76c30.79,16.46,49.88,66.41,25.8,95.63,9.78-38.58-8.13-64.26-25.8-95.63Z"/>
        <path class="st8" d="M713.93,280.1c5.21,7.98,16.45,12.54,25.05,16.7,5.87,2.84,13.18-3.09,17.46,12.91,4.27,16-2,23.77-12.14,34.16l-4.55-2.28c35.71-48.57-33.91-28.11-30.35-63.75,2.7-2.76,4.31,2.21,4.55,2.28h-.01Z"/>
        <path class="st8" d="M424.01,233.04c1.12,8.31-.38,17.44,1.51,26.56,4.6,22.13,18.47,41.67,40.98,47.81.58,3.52,5.74,4.75-.76,6.08-28.08,1.02-44.76-32.33-47.81-56.17-.06-.49.05-1.02,0-1.51-.63-6.06-2.08-21.91,6.08-22.76h0Z"/>
        <path class="st9" d="M417.93,255.81c.05.5-.06,1.02,0,1.51-23.82,16.34-52.37,17.44-63,48.58-7.25-4.07-1-18.35,2.28-23.53,9.74-15.38,43.23-25.9,60.72-26.56h0Z"/>
        <path class="st8" d="M756.43,342.33c4.85-5.96,11.48-15.82,12.14-23.53.59-6.91-4.93-20.23-4.55-21.25.63-1.74,28-13.26,30.35-20.5,4.85,16.25-16.8,22.52-18.21,26.56-6.88,19.7,5.96,22.83-19.74,38.71h.01Z"/>
        <path class="st7" d="M565.17,184.46c3.59,5.52,9.01,10.03,10.63,17.46,3.42,15.78-4.93,41.94-22.76,44.78,3.48-10.81-4.2-1.95,0-9.11,18.62-8.94,19.32-36.54,7.59-51.6l4.55-1.51h0Z"/>
        <path class="st9" d="M560.62,185.99c11.73,15.08,11.03,42.68-7.59,51.6,17.43-29.72,10.08-44.42-18.21-61.47,10.37-3.44,19.49,1.74,25.8,9.87h0Z"/>
        <g>
          <path class="st4" d="M900.63,351.44c42.47,26.65,57.02,87.16,10.63,117.64,20.67,27.16,53.51,28.99,78.93,44.78,5.86,3.64,10.87,8.22,15.18,13.66l-76.65-34.92,15.93,30.35c2.45,16.41,1.01,35.63-12.91,47.05,8.26-22.5,8.66-41.09-5.31-61.47-42.28-61.69-157.56-20.57-194.29,30.35,6.98,5.34,12.21,9.58,16.7,17.46-30.33-21.5-77.34-22.36-107.01,1.51-5.24,4.22-18.77,16.06-15.93,22.76-1.47,1.18-8.87,10.84-9.87,10.63,12.31-23.79-13.13-53.36-33.39-63.75-42.76-21.94-117.4-11.28-141.16,34.92-61.27-56.68-170.59,41.39-78.17,82.72l-4.55.76c-87.29-29.7-7.24-129.15,63-106.26,3.91,1.27,15.72,10.76,16.7,10.63.91-.14,9.05-11.31,12.14-13.66,55.7-42.24,142.66-43.81,174.56,27.33,26.15-26.85,47.41-34.98,85.01-33.39,3.21.14,13.03,5.21,15.18,4.55,2.37-.72,27.15-27.35,36.43-33.39,50.08-32.6,70.84-26.95,124.47-36.43,60.41-10.69,58.61-80.08,12.91-109.3.04-2.42-4.73-3.04,1.51-4.55h-.03Z"/>
          <path class="st8" d="M887.72,466.8c4.01.79,17.84,12.6,23.53,14.42-13.76-2.76-23.76-13.23-38.71-9.87-1.47-3.43,14.41-4.71,15.18-4.55h0Z"/>
        </g>
        <path class="st7" d="M710.89,264.92c-3.64-9.49.66-10.12,1.51-17.46.06-.5-3.92-2.12-3.04-6.08,2.31-10.39,23.08-33.89,34.92-34.16,1.54-.04,5.21-.57,6.08.76-20.43,14.37-38.49,30.16-39.47,56.92h0Z"/>
      </g>
    </g>
  </g>
</svg>