<?xml version="1.0" encoding="UTF-8"?>
<svg id="Layer_1" xmlns="http://www.w3.org/2000/svg" version="1.1" xmlns:xlink="http://www.w3.org/1999/xlink" viewBox="0 0 14400 14400">
  <!-- Generator: Adobe Illustrator 29.4.0, SVG Export Plug-In . SVG Version: 2.1.0 Build 152)  -->
  <defs>
    <style>
      .st0 {
        fill: #fff;
      }

      .st1 {
        clip-path: url(#clippath-1);
      }

      .st2 {
        clip-path: url(#clippath);
      }
    </style>
    <clipPath id="clippath">
      <path class="st0" d="M7187.94,7689.41c.95-.29,1.68-1.12,1.68-2.37v-974.02c.02-2.7-2.7-4.42-5.05-3.22l-472.92,242.59c-1.91.98-2.55,3.47-1.38,5.28l474.91,730.75c.67,1.03,1.8,1.29,2.76,1ZM7211.06,7689.49c.96.3,2.1-.03,2.76-1.07l474.91-730.75c1.18-1.81.53-4.3-1.38-5.28l-472.92-242.59c-2.35-1.2-5.13.52-5.13,3.22v974.02c0,1.25.81,2.15,1.76,2.45Z"/>
    </clipPath>
    <clipPath id="clippath-1">
      <path class="st0" d="M7187.94,7689.41c.95-.29,1.68-1.12,1.68-2.37v-974.02c.02-2.7-2.7-4.42-5.05-3.22l-472.92,242.59c-1.91.98-2.55,3.47-1.38,5.28l474.91,730.75c.67,1.03,1.8,1.29,2.76,1ZM7211.06,7689.49c.96.3,2.1-.03,2.76-1.07l474.91-730.75c1.18-1.81.53-4.3-1.38-5.28l-472.92-242.59c-2.35-1.2-5.13.52-5.13,3.22v974.02c0,1.25.81,2.15,1.76,2.45Z"/>
    </clipPath>
    <clipPath id="clippath-2">
      <rect class="st0" x="2102.7" y="5370.68" width="10034.33" height="7525.75"/>
    </clipPath>
  </defs>
  <path class="st0" d="M7187.94,7689.41c.95-.29,1.68-1.12,1.68-2.37v-974.02c.02-2.7-2.7-4.42-5.05-3.22l-472.92,242.59c-1.91.98-2.55,3.47-1.38,5.28l474.91,730.75c.67,1.03,1.8,1.29,2.76,1ZM7211.06,7689.49c.96.3,2.1-.03,2.76-1.07l474.91-730.75c1.18-1.81.53-4.3-1.38-5.28l-472.92-242.59c-2.35-1.2-5.13.52-5.13,3.22v974.02c0,1.25.81,2.15,1.76,2.45Z"/>
  <g class="st2">
    <g>
      <path class="st0" d="M7187.94,7689.41c.95-.29,1.68-1.12,1.68-2.37v-974.02c.02-2.7-2.7-4.42-5.05-3.22l-472.92,242.59c-1.91.98-2.55,3.47-1.38,5.28l474.91,730.75c.67,1.03,1.8,1.29,2.76,1ZM7211.06,7689.49c.96.3,2.1-.03,2.76-1.07l474.91-730.75c1.18-1.81.53-4.3-1.38-5.28l-472.92-242.59c-2.35-1.2-5.13.52-5.13,3.22v974.02c0,1.25.81,2.15,1.76,2.45Z"/>
      <g class="st1">
        <rect class="st0" x="2102.7" y="5370.68" width="10034.33" height="7525.75"/>
      </g>
    </g>
  </g>
</svg>