<?xml version="1.0" encoding="UTF-8"?>
<svg id="Layer_1" xmlns="http://www.w3.org/2000/svg" version="1.1" xmlns:xlink="http://www.w3.org/1999/xlink" viewBox="0 0 8192 8192">
  <!-- Generator: Adobe Illustrator 29.4.0, SVG Export Plug-In . SVG Version: 2.1.0 Build 152)  -->
  <defs>
    <style>
      .st0 {
        fill: #fff;
      }

      .st1 {
        fill: none;
      }

      .st2 {
        clip-path: url(#clippath-1);
      }

      .st3 {
        clip-path: url(#clippath);
      }
    </style>
    <clipPath id="clippath">
      <path class="st1" d="M4013.26,7589.55c6.78-2.07,11.99-7.99,11.99-16.9V626.3c.14-19.26-19.26-31.52-36.01-22.97L616.53,2333.39c-13.62,6.99-18.18,24.75-9.84,37.65l3386.88,5211.44c4.78,7.35,12.84,9.2,19.68,7.13v-.07ZM4178.14,7590.12c6.85,2.14,14.98-.21,19.68-7.63l3386.89-5211.44c8.42-12.91,3.78-30.67-9.84-37.65l-3372.69-1730.06c-16.76-8.56-36.59,3.71-36.59,22.97v6946.35c0,8.91,5.78,15.33,12.55,17.48h0Z"/>
    </clipPath>
    <clipPath id="clippath-1">
      <path class="st1" d="M4013.26,7589.55c6.78-2.07,11.99-7.99,11.99-16.9V626.3c.14-19.26-19.26-31.52-36.01-22.97L616.53,2333.39c-13.62,6.99-18.18,24.75-9.84,37.65l3386.88,5211.44c4.78,7.35,12.84,9.2,19.68,7.13v-.07ZM4178.14,7590.12c6.85,2.14,14.98-.21,19.68-7.63l3386.89-5211.44c8.42-12.91,3.78-30.67-9.84-37.65l-3372.69-1730.06c-16.76-8.56-36.59,3.71-36.59,22.97v6946.35c0,8.91,5.78,15.33,12.55,17.48h0Z"/>
    </clipPath>
  </defs>
  <path class="st0" d="M4013.26,7589.55c6.78-2.07,11.98-7.99,11.98-16.9V626.29c.14-19.26-19.26-31.52-36.01-22.97L616.54,2333.39c-13.62,6.99-18.18,24.75-9.84,37.65l3386.88,5211.44c4.78,7.34,12.84,9.2,19.68,7.13v-.07ZM4178.14,7590.12c6.85,2.14,14.98-.21,19.68-7.63l3386.88-5211.44c8.42-12.91,3.78-30.66-9.84-37.65l-3372.69-1730.06c-16.76-8.56-36.58,3.71-36.58,22.97v6946.35c0,8.91,5.78,15.33,12.55,17.47h0Z"/>
  <g class="st3">
    <g>
      <path class="st0" d="M4013.26,7589.55c6.78-2.07,11.98-7.99,11.98-16.9V626.29c.14-19.26-19.26-31.52-36.01-22.97L616.54,2333.39c-13.62,6.99-18.18,24.75-9.84,37.65l3386.88,5211.44c4.78,7.34,12.84,9.2,19.68,7.13v-.07ZM4178.14,7590.12c6.85,2.14,14.98-.21,19.68-7.63l3386.88-5211.44c8.42-12.91,3.78-30.66-9.84-37.65l-3372.69-1730.06c-16.76-8.56-36.58,3.71-36.58,22.97v6946.35c0,8.91,5.78,15.33,12.55,17.47h0Z"/>
      <g class="st2">
        <rect class="st0" x="-32252.8" y="-8946.78" width="71561.14" height="53670.87"/>
      </g>
    </g>
  </g>
</svg>