<?xml version="1.0" encoding="UTF-8"?>
<svg id="Layer_1" xmlns="http://www.w3.org/2000/svg" version="1.1" xmlns:xlink="http://www.w3.org/1999/xlink" viewBox="0 0 8192 8192">
  <!-- Generator: Adobe Illustrator 29.4.0, SVG Export Plug-In . SVG Version: 2.1.0 Build 152)  -->
  <defs>
    <style>
      .st0 {
        fill: #fff;
      }

      .st1 {
        fill: none;
      }

      .st2 {
        clip-path: url(#clippath-1);
      }

      .st3 {
        clip-path: url(#clippath);
      }
    </style>
    <clipPath id="clippath">
      <path class="st1" d="M4029.62,6896.27c5.43-1.66,9.61-6.4,9.61-13.55V1314.73c.11-15.44-15.44-25.27-28.86-18.41l-2703.47,1386.77c-10.92,5.6-14.57,19.84-7.89,30.18l2714.83,4177.34c3.83,5.89,10.29,7.37,15.77,5.72v-.06h0ZM4161.79,6896.73c5.49,1.72,12.01-.17,15.78-6.12l2714.83-4177.34c6.75-10.35,3.03-24.58-7.89-30.18l-2703.45-1386.77c-13.43-6.86-29.33,2.97-29.33,18.41v5568c0,7.14,4.63,12.29,10.06,14.01v-.02Z"/>
    </clipPath>
    <clipPath id="clippath-1">
      <path class="st1" d="M4029.62,6896.27c5.43-1.66,9.61-6.4,9.61-13.55V1314.73c.11-15.44-15.44-25.27-28.86-18.41l-2703.47,1386.77c-10.92,5.6-14.57,19.84-7.89,30.18l2714.83,4177.34c3.83,5.89,10.29,7.37,15.77,5.72v-.06h0ZM4161.79,6896.73c5.49,1.72,12.01-.17,15.78-6.12l2714.83-4177.34c6.75-10.35,3.03-24.58-7.89-30.18l-2703.45-1386.77c-13.43-6.86-29.33,2.97-29.33,18.41v5568c0,7.14,4.63,12.29,10.06,14.01v-.02Z"/>
    </clipPath>
  </defs>
  <path class="st0" d="M4029.62,6896.27c5.43-1.66,9.6-6.4,9.6-13.55V1314.72c.11-15.44-15.44-25.27-28.86-18.41l-2703.45,1386.77c-10.92,5.6-14.57,19.84-7.89,30.18l2714.83,4177.34c3.83,5.88,10.29,7.37,15.77,5.72v-.06h0ZM4161.79,6896.73c5.49,1.72,12.01-.17,15.78-6.12l2714.83-4177.34c6.75-10.35,3.03-24.58-7.89-30.18l-2703.45-1386.77c-13.43-6.86-29.32,2.97-29.32,18.41v5568c0,7.14,4.63,12.29,10.06,14h0Z"/>
  <g class="st3">
    <g>
      <path class="st0" d="M4029.62,6896.27c5.43-1.66,9.6-6.4,9.6-13.55V1314.72c.11-15.44-15.44-25.27-28.86-18.41l-2703.45,1386.77c-10.92,5.6-14.57,19.84-7.89,30.18l2714.83,4177.34c3.83,5.88,10.29,7.37,15.77,5.72v-.06h0ZM4161.79,6896.73c5.49,1.72,12.01-.17,15.78-6.12l2714.83-4177.34c6.75-10.35,3.03-24.58-7.89-30.18l-2703.45-1386.77c-13.43-6.86-29.32,2.97-29.32,18.41v5568c0,7.14,4.63,12.29,10.06,14h0Z"/>
      <g class="st2">
        <rect class="st0" x="-25040.21" y="-6358.78" width="57361.36" height="43021.03"/>
      </g>
    </g>
  </g>
</svg>