<?xml version="1.0" encoding="UTF-8"?>
<svg id="Layer_1" xmlns="http://www.w3.org/2000/svg" version="1.1" viewBox="0 0 1024 1536">
  <!-- Generator: Adobe Illustrator 29.4.0, SVG Export Plug-In . SVG Version: 2.1.0 Build 152)  -->
  <defs>
    <style>
      .st0 {
        fill: #f8c605;
      }

      .st1 {
        fill: #252e3c;
      }

      .st2 {
        fill: #297eda;
      }

      .st3 {
        fill: #252f3d;
      }

      .st4 {
        fill: #287dd9;
      }

      .st5 {
        fill: #242d3b;
      }

      .st6 {
        fill: #faf6f0;
      }

      .st7 {
        fill: #e8e5e0;
      }

      .st8 {
        fill: #fac902;
      }

      .st9 {
        fill: #f7f3ee;
      }

      .st10 {
        fill: #283241;
      }

      .st11 {
        fill: #fdf8f5;
      }

      .st12 {
        fill: #ec372d;
      }

      .st13 {
        fill: #27323f;
      }
    </style>
  </defs>
  <path class="st5" d="M730,787c-2.97-.61-3.13,2.55,0,2-1.29,21.02-3.63,40.64-9.5,61-1.52,5.28-7.88,19.11-8.21,22.64-.24,2.62,2.37,9.27,2.69,12.88,4.64,51.53-36.61,78.05-83.98,74.48v16.5c0,12.72-15.97,29.09-27.32,33.68-4.71,1.9-11.06,1.73-13.68,5.81,39.23,6.27,89.41,26.9,111,62.01,2.22,3.61,5.53,10.46,7.02,14.48.82,2.2,4.11,10.77,2.03,12.07-25.23,3.91-50.65,6.23-76.05,8.45,3.65-4.77,8.94,1.65,9.01-6.98-7.34-2.67-10.07-.8-10.01,6.98-90.13,7.78-182.49,7.72-272.49-2.01-16.19-1.75-32.46-4.25-48.48-7.04-1.48-2.13,7.92-22.81,9.97-25.95,1.16-1.77,2.98-2.79,4-4,3.69,2.71,5.18-2.44,4.99-4.99-3.23-.79-1.36,1.92-2.16,2.81-.5.55-1.71.06-1.83.19,7.2-12.21,20.2-22,32.1-29.44,1-.63,2.53-.33,2.9-.56-.09,5.6,8.37-1.79,1-1,7.17-4.2,13.07-7.66,21-11,.84,3.12-3.52,2.42-4,3.01-2.69,3.31,4.73,1.09,5.92.41,12.04-6.94,19.45-6.07,32.35-8.64,2.53-.5,12.19-6.01,5.32-5.65-1.79.09-4.27-.15-4.59-.13l13.99-3.49c-2.33-3.26-6.57-2.71-9.95-4.05-22.83-9.01-31.69-26.21-31.04-50.46-20.77-.85-43.41-2.77-60.02-16.48-17.62-14.55-25.05-36.33-22.97-59,.33-3.57,3.1-10.41,2.79-12.78-.68-5.34-7.79-20.85-9.73-28.31-7.32-28.17-9.7-56.35-9.08-85.42l9.99,2c.11-3.5-.13-7.04,0-10.54.08-1.92-1.03-4.01,2-3.45-1.43,34.33,2,70.95,12.98,103.52,1.66,4.94,7.28,15.38,7.85,19.23.27,1.8-4.06,11.99-4.55,16.03-1.41,11.7,1.55,24.95,7.2,35.24,15.37,27.96,51.46,27.39,79.52,27.98v25.5c0,1.68,2.15,9.06,2.98,11.02,3.42,8.1,8.43,9.91,16.02,12.48,8.38,2.84,21.1,4.56,30,3-1.45,6.01,7.75,1.4,2-1,5.99-3.13,7.81-9.9,9-16,7.15,1.03,8.33-8.87,9-14,1.23.78,1.68.71,1.98,2.49,2.06,12.26-1.68,24.77,13.23,29.79,9.37,3.16,34.74,3.03,43.49-2.08,12.78-7.45,5.41-28.72,11.96-31.04,9.5-3.37,7.57,12.92,8.78,18.89,3.02,14.99,15.69,14,28.56,12.94.96,6.08,8.31,5.08,8-1,8.74-2.13,18.06-8.9,20.72-17.78.7-2.33,2.28-9.72,2.28-11.72v-21.5c26.17-.01,61.77-.83,78-25,1.14,4.13,11.67-.23,12.03-1.72.67-2.73-1.04-13.56-6.03-12.28.35-1.26,2-7.11,2-7.5v-20c0-2.48-4.06-9.36-3.92-12.02.07-1.31,5.57-14.52,6.62-17.24,12.87-33.32,16.74-78.85,13.29-115.73-.8-8.61-3.2-27.75-6.97-35.03-3.35-6.48-20.11-16.53-27.03-19.47,3.53-1.46,4.65-3.58,6-7,23.11,10.82,32.81,17.06,37.71,43.79,4.08,22.28,3.49,44.95,2.29,67.21ZM451.99,1003.01c-3.04.26-6.55-.38-9.51,0-1.39.18-2.88.53-1.48,1.99s6.77.88,8.83.3c1.76-.5,2.6.34,2.16-2.28ZM432.01,1019.99c1.79.19,7.62.52,6.99-2.48-.77-3.62-8.93.93-6.99,2.48ZM485,1067c-.85,3.74,2.29,4.68,2,1,1.39.41,4.85.56,7,1,3.07.63,6.99,1.72,10,2,.21,3.97,5.08,4.72,4,0,2.56.1,5.46.16,8,0,1.5,8.64,13.43,9.32,20.29,7.79,4.61-1.03,16.93-10.67,12.71-16.79,1.13-.61,3.48-1.66,4-2,6.19,4.4,9.75-2.97,12.7-3.8,2.13-.6,4.47.2,6.6-.4,5.67-1.58,9.34-18.5.7-18.8.37-.86,3.69-8.19.52-6.99-2.06.78-7.23,5.46-10.01,6.99-14.29,7.88-29.23,11.4-45.51,11.99-.56-3.18,1.6-1.76,3.49-1.97,4.01-.43,9.89-.5,13.55-1.52,1.29-.36,2.38-.27,1.96-2-.5-1.02-19.11-9.39-20.55-9.47-4.53-.27-21.59,3.03-25.82,5.09-1.53.75-5.06,2.95-5.62,4.39-1.03,2.67,4.09.07,2.99,3.49-4.3-.81-8.85-1.64-13-3-9.31-3.06-19.08-8.54-26.5-15-1.26,2.15.4,5.57,1.32,7.68,5.52,12.76,22.27,25.76,35.19,30.31ZM404.26,1049.27c-.61,5.03-5.78,6.63-4.08,12.04,1.42,4.51,28.06,15.44,29.82,5.14,1-5.87-3.81-6.29-5.88-10.07s-.01-6.35-6.06-7.94c-3.3-.87-11.48-2.07-13.8.83ZM607,1113.99c2.01-2.03-3.48-6.49-4.99-2.49-1.4,3.72,4.72,2.75,4.99,2.49Z"/>
  <path class="st3" d="M293,759c.31-14.63,1.62-49.97,10-61.5,13.72-18.86,45.65-27.63,66.58-35.45-4.58-23.28-24.83-54.07,6.9-67.07,18.96-7.77,46.33-14.89,66.52-20.48,17.92-4.96,36.12-12.04,47.54,8.46l19.44,63.37c6,3.19.57-5.38.11-8.91-.33-2.5-.19-5.28.04-7.8,2.48-27.1,14.83-58.72,18.83-86.17,6.31-13.84,16.67-17.54,31.08-14.99,22.24,3.93,58.05,11.84,79.19,18.81,12.22,4.03,20.91,14.87,19.76,28.21l-17.99,84.51c17.25,2.54,33.4,8.7,49,16-1.35,3.42-2.47,5.54-6,7-9.03-3.83-36.52-12.41-45.66-12.95-4.83-.28-4.42,2.6-7.38,4.4-2.3,1.4-5.66,1.52-6.95,3.53,18.69,3.47,39.64,8.21,56.69,16.82,35.57,17.97-6.55,30.74-24.48,35.91-40.05,11.54-82.26,13.93-123.71,15.29-54,1.78-124.68-.21-176.05-17.97-21.95-7.59-44.81-18.67-11.68-34.75,9.84-4.78,20.66-7.57,31.19-10.33-.34-2.64-1.47-9.76-4.46-9.99-3.26-.26-19.57,5.72-23.76,7.29-10.6,3.96-33.5,13.42-37.27,24.73-.72,2.15-.97,5.51-1.48,8.02-2.21,10.77-3.54,23-4,34-3.03-.56-1.92,1.53-2,3.45-.14,3.5.11,7.05,0,10.54l-9.99-2ZM541.34,541.34c-1.72,1.72-3.11,5.27-3.86,7.64-6.39,20.19-12.8,53.52-16.19,74.81-2.08,13.05-3.68,21.69,10.7,26.71,25.06,8.76,56.07,11.38,81.8,19.24,8.48.94,15.94-4.31,17.75-12.7,3.23-26.06,14.38-54.1,17.18-79.82,1.07-9.9-.6-16.3-10.5-19.95-26.43-3.82-58.11-17.71-84.02-20.02-4.36-.39-9.7.93-12.86,4.09ZM461.74,579.24c-25.66,4.08-56.44,20.14-82.72,25.28-11.06,5.03-11.47,13.33-8.95,23.9,5.43,22.79,14.86,54.07,22.91,76.09,3.49,9.54,8.37,14.33,19.25,14.29,27.09-9.76,57.62-15.44,84.31-25.77,10.6-4.1,12.71-11.07,10.81-21.88-4.73-26.9-19.48-57.12-25.83-84.17-3.92-7.89-11.68-9.04-19.77-7.75ZM569,671c4.22.36,8.73,2.11,13.01.5,0-.81-11.37-2.13-13.01-2.5-12.53-2.86-42.48-12.64-53.53-11-1.48.22-1.6-.59-1.49,1.51.1,1.96,1.99,8.8,3.66,9.36,3.54,1.2,16.87-.1,21.91.09,9.72.38,19.76,1.21,29.46,2.04Z"/>
  <path class="st1" d="M476.79,185.29c61.98-3.93,135.68,19.44,165.73,77.68,5.76,11.16,8.69,16.08-.01,27.03-27.35,34.45-135.82,69.3-179.51,81.49-38.37,10.7-111.18,28.83-149.23,21.23-19.37-3.87-20.65-18.76-21.76-36.24-6.3-99.27,95.57-165.54,184.78-171.2ZM360,243c-1.66,1.33-4.82,2.56-7.01,4.49-35.26,30.99-58.2,79.23-46.49,126.51,14.99-16.52,34.75-27.97,54.5-38,74.04-37.58,162.6-61,245.52-66.08l27.49,2.57c-34.9-68.1-120.27-86.17-190.22-70.2-32.24,7.36-58.32,20.34-83.79,40.71Z"/>
  <path class="st7" d="M322,1078c-2.05,3.14-11.46,23.82-9.97,25.95,16.03,2.78,32.3,5.29,48.48,7.04,90,9.73,182.36,9.79,272.49,2.01.33-.03.67.03,1,0,25.4-2.22,50.82-4.54,76.05-8.45,2.08-1.3-1.21-9.87-2.03-12.07-1.5-4.01-4.8-10.87-7.02-14.48,19.73,2.5,43,4.55,61.52,11.98,25.99,10.42-.09,19.28-13.3,22.75-45.53,11.97-102.55,13.25-149.77,15.23-81.67,3.42-167.38,3.5-248.95-3.96-20.87-1.91-78.78-7.76-94.84-18.16-13.83-8.96,4.67-15.56,12.58-18.1,16.9-5.44,36.17-7.36,53.76-9.74Z"/>
  <path class="st13" d="M344.35,439.35c3.02-3.02,6.89-5.15,10.86-6.64,20.99-7.86,55.96-17.1,78.15-21.85,16.26-3.48,28.5-.82,36.11,15.15,5.98,26.18,15.22,51.62,21.23,77.77,3.89,16.94,1.44,30.43-16.19,37.24-20.38,7.87-58.01,17.93-79.68,22.32-15.93,3.23-27.18-1.34-34.32-16.36-4.43-26.64-19.68-57.78-23.26-83.74-1.31-9.49.28-17.08,7.09-23.89ZM440.74,419.24c-25.77,8.96-56.01,13.18-81.28,22.71-10.23,3.86-13.76,8.85-12.01,20.1,4.09,26.19,17.67,55.67,22.81,82.18,2.57,5.84,7.92,10.05,14.38,10.7,24.44-5.47,49.3-12.1,73.35-19.43,12.81-3.91,26.82-5.47,24.74-22.74-9.23-25.96-13.03-57.79-22.97-83.03-3.35-8.52-9.98-11.83-19.04-10.48Z"/>
  <path class="st10" d="M543.74,366.24c23.15-3.88,65.52,14,90.29,15.23,15.76,4.96,22.32,15.46,20.85,31.91-1.93,21.65-9.17,58.12-14.34,79.66-3.98,16.58-14.22,22.33-30.91,20.84-18.86-1.68-58.39-9.84-76.83-15.17-13.24-3.83-20.51-12.27-21.68-26.1,7.09-27.64,7.04-62.94,15.37-89.63,2.31-7.4,9.32-15.41,17.26-16.74ZM547.76,375.21c-7.32,1.05-10.33,5.28-12.11,11.94-7.14,26.78-8.31,58.13-14.67,85.4-.41,7.4,4.96,14.08,11.79,16.19,25.22,7.8,56.1,8.9,81.89,16.18,8.66-.15,13.79-4.63,16.05-12.72,7.34-26.26,8.29-58.14,15.03-84.98-.24-7.26-4.63-13.68-11.67-15.78-25.38-7.58-56.78-8.98-82.71-16.37-1.22-.28-2.38-.04-3.59.13Z"/>
  <path class="st3" d="M419,1019c.32-.02,2.8.22,4.59.13,6.87-.36-2.79,5.15-5.32,5.65-12.9,2.58-20.32,1.7-32.35,8.64-1.19.69-8.61,2.9-5.92-.41.48-.59,4.84.11,4-3.01,9.85-4.15,24.46-10.2,35-11Z"/>
  <path class="st3" d="M327,1072c.12-.13,1.33.37,1.83-.19.8-.89-1.07-3.59,2.16-2.81.18,2.55-1.3,7.7-4.99,4.99.16-.19.12-1.07,1-2Z"/>
  <path class="st3" d="M363,1041c7.37-.79-1.09,6.6-1,1,.3-.18.58-.75,1-1Z"/>
  <path class="st3" d="M730,787c-.04.66.04,1.34,0,2-3.13.55-2.97-2.61,0-2Z"/>
  <path class="st6" d="M684,683c6.92,2.94,23.68,12.99,27.03,19.47,3.77,7.29,6.16,26.43,6.97,35.03,3.45,36.89-.43,82.41-13.29,115.73-1.05,2.73-6.55,15.94-6.62,17.24-.14,2.66,3.92,9.54,3.92,12.02v20c0,.39-1.65,6.24-2,7.5-.47,1.69-1.36,4.39-2,6-.23.59-1.57,3.17-2,4-.58,1.1-1.55,3.33-2,4-16.23,24.17-51.83,24.99-78,25v21.5c0,2-1.58,9.39-2.28,11.72-2.66,8.88-11.98,15.65-20.72,17.78-1.31.32-6.29.86-8,1-12.87,1.06-25.54,2.05-28.56-12.94-1.2-5.97.72-22.26-8.78-18.89-6.54,2.32.82,23.59-11.96,31.04-8.75,5.1-34.12,5.23-43.49,2.08-14.91-5.02-11.17-17.53-13.23-29.79-.3-1.78-.75-1.71-1.98-2.49-9.78-6.22-8.09,9.36-9,14-1.19,6.1-3.01,12.87-9,16-.4.21-1.89.98-2,1-8.9,1.56-21.62-.16-30-3-10.61-15.87-8.42-33.87-7.01-51.99-12.23.33-23.46-11.84-31.02-20.48-35.9-41.08-45.06-111.22-43.01-164.07.14-3.7,3.22-25.2,2-26.42-9.8-2.32-22.65-7.46-30.43-14.07-3.05-2.59-4.93-6.62-8.52-7.98.52-2.51.77-5.87,1.48-8.02,3.77-11.3,26.67-20.77,37.27-24.73,4.19-1.56,20.5-7.54,23.76-7.29,2.99.23,4.13,7.36,4.46,9.99-10.53,2.76-21.34,5.55-31.19,10.33-33.14,16.08-10.27,27.16,11.68,34.75,51.36,17.76,122.04,19.76,176.05,17.97,41.45-1.37,83.66-3.75,123.71-15.29,17.93-5.17,60.05-17.94,24.48-35.91-17.05-8.61-38-13.34-56.69-16.82,1.29-2.02,4.66-2.14,6.95-3.53,2.96-1.8,2.55-4.69,7.38-4.4,9.14.54,36.64,9.11,45.66,12.95ZM420.78,789.28c-66.89,8.06-60.38,119.85,10.71,114.7,69.26-5.01,63.78-123.68-10.71-114.7ZM587.76,789.26c-64.84,8.19-57.19,118.24,11.74,114.73,72.61-3.7,63.25-124.2-11.74-114.73ZM510.73,874.19c-6.7.89-18.52,20.09-21.9,26.13-4.88,8.74-13.59,23.72-3.32,31.67,4.62,3.58,10.77,3.94,16.32,2.33,3.45-1,7.8-6.01,9.85-6.19,1.05-.09,7.52,5.62,11.27,6.42,12.09,2.58,21.41-3.15,20.05-16.07-.92-8.76-19.42-38.47-27.08-42.9-1.51-.88-3.4-1.63-5.19-1.4Z"/>
  <path class="st7" d="M309,713c3.59,1.36,5.47,5.39,8.52,7.98,7.78,6.6,20.64,11.74,30.43,14.07,1.23,1.21-1.85,22.71-2,26.42-2.05,52.85,7.11,122.98,43.01,164.07,7.55,8.64,18.79,20.81,31.02,20.48-1.41,18.12-3.6,36.12,7.01,51.99-7.59-2.57-12.6-4.38-16.02-12.48-.83-1.97-2.98-9.35-2.98-11.02v-25.5c-28.06-.59-64.15-.02-79.52-27.98-5.65-10.28-8.61-23.54-7.2-35.24.49-4.04,4.82-14.23,4.55-16.03-.57-3.85-6.18-14.29-7.85-19.23-10.98-32.57-14.41-69.19-12.98-103.52.46-11,1.79-23.23,4-34Z"/>
  <path class="st9" d="M518,1049c16.28-.59,31.22-4.12,45.51-11.99,2.78-1.53,7.95-6.22,10.01-6.99,3.17-1.2-.15,6.13-.52,6.99-2.88,6.72-13.93,19.03-20,23-.52.34-2.87,1.39-4,2-9.4,5.04-22.36,8.34-33,9-2.54.16-5.44.1-8,0-1.32-.05-2.69.12-4,0-3.01-.28-6.93-1.37-10-2l-5.02-12c-3.12-1.1-1.45,3.38-3.52,3.99-4.09,1.22-11.75-12.92-10.47-16.99,4.15,1.36,8.7,2.19,13,3,.61.12,1.37-.1,2,0,.11.02.26.77,2,1,8.53,1.13,17.39,1.31,26,1Z"/>
  <path class="st3" d="M488,1047c1.1-3.41-4.02-.82-2.99-3.49.55-1.44,4.08-3.64,5.62-4.39,4.23-2.06,21.29-5.36,25.82-5.09,1.43.09,20.04,8.46,20.55,9.47.43,1.73-.67,1.64-1.96,2-3.66,1.02-9.54,1.09-13.55,1.52-1.88.2-4.04-1.22-3.49,1.97-8.61.31-17.47.13-26-1,.37-2.26-.45-2.84-2-1-.63-.1-1.39.12-2,0Z"/>
  <path class="st7" d="M475,1044c-1.28,4.08,6.37,18.21,10.47,16.99,2.07-.61.4-5.09,3.52-3.99l5.02,12c-2.15-.44-5.61-.59-7-1-.36-.1-1.17-.71-2-1-12.92-4.55-29.67-17.56-35.19-30.31-.91-2.11-2.58-5.53-1.32-7.68,7.43,6.45,17.19,11.93,26.5,15Z"/>
  <path class="st3" d="M404.26,1049.27c2.33-2.9,10.5-1.7,13.8-.83,6.05,1.59,3.9,3.98,6.06,7.94s6.88,4.2,5.88,10.07c-1.76,10.3-28.41-.63-29.82-5.14-1.7-5.42,3.47-7.01,4.08-12.04Z"/>
  <path class="st3" d="M549,1062c4.22,6.12-8.11,15.76-12.71,16.79-6.86,1.53-18.79.85-20.29-7.79,10.64-.66,23.6-3.96,33-9Z"/>
  <path class="st3" d="M553,1060c6.07-3.97,17.12-16.28,20-23,8.64.3,4.97,17.22-.7,18.8-2.14.59-4.48-.21-6.6.4-2.94.84-6.5,8.21-12.7,3.8Z"/>
  <path class="st3" d="M700,910c4.99-1.28,6.69,9.55,6.03,12.28-.36,1.48-10.89,5.85-12.03,1.72.45-.67,1.42-2.9,2-4,2.28.57,2.6-1.53,2.83-3.39l-.83-.61c.64-1.61,1.53-4.31,2-6Z"/>
  <path class="st3" d="M477,970c-.67,5.13-1.85,15.03-9,14,.91-4.64-.78-20.22,9-14Z"/>
  <path class="st3" d="M633,1113c-.06-7.78,2.66-9.65,10.01-6.98-.07,8.63-5.35,2.21-9.01,6.98-.33.03-.67-.03-1,0Z"/>
  <path class="st3" d="M593,1000c.31,6.08-7.04,7.08-8,1,1.71-.14,6.69-.68,8-1Z"/>
  <path class="st3" d="M451.99,1003.01c.44,2.61-.4,1.78-2.16,2.28-2.07.59-7.41,1.17-8.83-.3s.09-1.81,1.48-1.99c2.96-.38,6.47.26,9.51,0Z"/>
  <path class="st3" d="M432.01,1019.99c-1.94-1.55,6.22-6.1,6.99-2.48.63,3-5.2,2.67-6.99,2.48Z"/>
  <path class="st3" d="M607,1113.99c-.26.27-6.38,1.23-4.99-2.49,1.5-4,7,.46,4.99,2.49Z"/>
  <path class="st3" d="M459,1000c5.75,2.4-3.45,7.01-2,1,.11-.02,1.6-.79,2-1Z"/>
  <path class="st3" d="M508,1071c1.08,4.72-3.79,3.97-4,0,1.31.12,2.68-.05,4,0Z"/>
  <path class="st3" d="M487,1068c.29,3.68-2.85,2.74-2-1,.83.29,1.64.9,2,1Z"/>
  <path class="st4" d="M541.34,541.34c3.16-3.16,8.5-4.48,12.86-4.09,25.91,2.31,57.59,16.21,84.02,20.02,9.9,3.65,11.57,10.05,10.5,19.95-2.79,25.72-13.95,53.76-17.18,79.82-1.8,8.39-9.27,13.64-17.75,12.7-25.74-7.86-56.74-10.48-81.8-19.24-14.38-5.03-12.78-13.67-10.7-26.71,3.39-21.29,9.8-54.63,16.19-74.81.75-2.36,2.14-5.91,3.86-7.64ZM621,601.01c-8.23-1.61-17.47-3.18-24.99-6.52-.38-1.65,15.41-17.55,17.43-20.55.71-1.05,2.16-2.67,1.13-3.98-4.01-.77-25.77-7.47-27.55-6.51l-33.88,41.22c-.18.58-.29,1.2-.12,1.8.54,1.9,18.74,5.29,21.99,5.54,2.69,2.8-17.32,29.76-16,30.99,1.87.44,2.77-.63,4.14-1.35,14.2-7.48,34.39-22.3,48.18-31.81,1.31-.91,11.21-7.35,9.67-8.82Z"/>
  <path class="st12" d="M461.74,579.24c8.09-1.29,15.85-.14,19.77,7.75,6.35,27.05,21.1,57.27,25.83,84.17,1.9,10.81-.21,17.78-10.81,21.88-26.68,10.32-57.21,16.01-84.31,25.77-10.88.04-15.76-4.74-19.25-14.29-8.05-22.02-17.48-53.3-22.91-76.09-2.52-10.58-2.12-18.87,8.95-23.9,26.27-5.14,57.06-21.2,82.72-25.28ZM431.99,625c-9.59-5-17.93-9.46-28.33-2.84-20.52,13.05-4.58,37.98,10.61,48.07,5.2,3.45,28.94,14.82,34.03,13.62,2.42-.58,10.61-11.81,12.51-14.53,9.12-13.03,17.81-29.83,12.49-46.12-6.97-21.32-37.7-20.66-41.31,1.8Z"/>
  <path class="st9" d="M569,669v2c-9.7-.83-19.74-1.66-29.46-2.04-5.04-.2-18.36,1.1-21.91-.09-1.67-.56-3.56-7.4-3.66-9.36-.11-2.1.01-1.29,1.49-1.51,11.05-1.64,41.01,8.15,53.53,11Z"/>
  <path class="st7" d="M569,669c1.64.37,13.01,1.69,13.01,2.5-4.28,1.61-8.79-.14-13.01-.5v-2Z"/>
  <path class="st6" d="M360,243c25.47-20.36,51.55-33.34,83.79-40.71,69.94-15.97,155.31,2.1,190.22,70.2l-27.49-2.57c-82.91,5.08-171.47,28.5-245.52,66.08-10.89-21.21-14.51-44.37-9.32-67.82,1.95-8.83,6.47-16.49,8.32-25.18Z"/>
  <path class="st7" d="M360,243c-1.86,8.69-6.37,16.34-8.32,25.18-5.19,23.46-1.57,46.62,9.32,67.82-19.75,10.02-39.51,21.48-54.5,38-11.71-47.28,11.23-95.52,46.49-126.51,2.2-1.93,5.35-3.16,7.01-4.49Z"/>
  <path class="st8" d="M440.74,419.24c9.06-1.34,15.68,1.97,19.04,10.48,9.94,25.24,13.74,57.07,22.97,83.03,2.08,17.28-11.93,18.84-24.74,22.74-24.06,7.33-48.92,13.97-73.35,19.43-6.46-.64-11.81-4.85-14.38-10.7-5.14-26.51-18.72-55.99-22.81-82.18-1.76-11.25,1.78-16.24,12.01-20.1,25.26-9.54,55.5-13.76,81.28-22.71ZM429.72,459.19c-11.36,2.5-6.79,22,4.54,19.63s8.23-22.45-4.54-19.63ZM397.68,473.32c-9.2-10.05-23.64,7.47-11.64,15.15,10.94,7,18.7-7.43,11.64-15.15ZM390.3,509.71c7.46,9.36,25.5,11.06,36.23,7.32,8.3-2.89,23.46-16.89,20.33-26.38-2.17-6.59-6.82,2.63-7.86,3.85-10.64,12.45-24.76,16.6-40.55,11.54-3.3-1.06-4.99-4.67-9.37-1.94-.35,1.85.03,4.13,1.21,5.61Z"/>
  <path class="st2" d="M547.76,375.21c1.2-.17,2.37-.41,3.59-.13,25.93,7.39,57.33,8.79,82.71,16.37,7.04,2.1,11.43,8.52,11.67,15.78-6.73,26.84-7.69,58.72-15.03,84.98-2.26,8.09-7.38,12.57-16.05,12.72-25.79-7.28-56.67-8.38-81.89-16.18-6.82-2.11-12.19-8.78-11.79-16.19,6.37-27.27,7.53-58.62,14.67-85.4,1.78-6.66,4.79-10.89,12.11-11.94ZM573.92,421.95c.31-.22,2.19-5.01,4.02-6.51,6.79-5.58,17.52-.81,15.87,7.81-1.77,9.21-19.24,9.67-21.57,23.49-1.78,10.61,5.72,6.52,13.19,9.14,2.52-3.12,1.93-6.69,5.07-9.88,6.82-6.94,19.24-6.47,22.06-19.94,4.45-21.3-19.2-33.77-37.77-27.78-4.43,1.43-15.25,10.91-15.66,15.41-.19,2.12,14.08,8.76,14.79,8.26ZM575.66,460.29c-13.16.66-11.9,21.36.82,20.78,13.53-.62,11.89-21.42-.82-20.78Z"/>
  <path class="st5" d="M420.78,789.28c74.49-8.98,79.96,109.69,10.71,114.7-71.09,5.14-77.59-106.65-10.71-114.7Z"/>
  <path class="st5" d="M587.76,789.26c74.99-9.47,84.34,111.03,11.74,114.73s-76.58-106.54-11.74-114.73Z"/>
  <path class="st5" d="M510.73,874.19c1.79-.24,3.68.52,5.19,1.4,7.66,4.43,26.16,34.14,27.08,42.9,1.36,12.91-7.97,18.65-20.05,16.07-3.75-.8-10.22-6.51-11.27-6.42-2.05.18-6.4,5.19-9.85,6.19-5.55,1.6-11.7,1.25-16.32-2.33-10.26-7.95-1.55-22.93,3.32-31.67,3.37-6.05,15.19-25.24,21.9-26.13Z"/>
  <path class="st5" d="M698,916l.83.61c-.24,1.86-.55,3.97-2.83,3.39.43-.83,1.77-3.41,2-4Z"/>
  <path class="st5" d="M490,1047c1.55-1.84,2.37-1.26,2,1-1.74-.23-1.89-.98-2-1Z"/>
  <path class="st0" d="M621,601.01c1.54,1.47-8.36,7.91-9.67,8.82-13.79,9.52-33.99,24.34-48.18,31.81-1.37.72-2.27,1.8-4.14,1.35-1.33-1.23,18.69-28.19,16-30.99-3.25-.25-21.46-3.64-21.99-5.54-.17-.6-.05-1.22.12-1.8l33.88-41.22c1.78-.95,23.54,5.74,27.55,6.51,1.03,1.31-.42,2.93-1.13,3.98-2.02,3-17.81,18.91-17.43,20.55,7.52,3.34,16.76,4.91,24.99,6.52Z"/>
  <path class="st11" d="M431.99,625c3.61-22.46,34.34-23.13,41.31-1.8,5.32,16.29-3.37,33.09-12.49,46.12-1.91,2.72-10.09,13.95-12.51,14.53-5.08,1.21-28.83-10.16-34.03-13.62-15.2-10.08-31.13-35.01-10.61-48.07,10.4-6.62,18.74-2.16,28.33,2.84Z"/>
  <path class="st3" d="M390.3,509.71c-1.18-1.49-1.56-3.76-1.21-5.61,4.38-2.73,6.06.88,9.37,1.94,15.78,5.06,29.91.92,40.55-11.54,1.04-1.22,5.69-10.44,7.86-3.85,3.13,9.49-12.03,23.49-20.33,26.38-10.74,3.74-28.77,2.04-36.23-7.32Z"/>
  <path class="st5" d="M429.72,459.19c12.77-2.81,15.69,17.31,4.54,19.63s-15.9-17.13-4.54-19.63Z"/>
  <path class="st13" d="M397.68,473.32c7.06,7.71-.7,22.15-11.64,15.15-12-7.68,2.44-25.2,11.64-15.15Z"/>
  <path class="st6" d="M573.92,421.95c-.71.5-14.98-6.13-14.79-8.26.4-4.5,11.23-13.98,15.66-15.41,18.58-5.99,42.23,6.47,37.77,27.78-2.82,13.47-15.24,13-22.06,19.94-3.14,3.19-2.55,6.76-5.07,9.88-7.47-2.62-14.97,1.47-13.19-9.14,2.32-13.82,19.8-14.28,21.57-23.49,1.65-8.62-9.08-13.39-15.87-7.81-1.83,1.5-3.71,6.29-4.02,6.51Z"/>
  <path class="st9" d="M575.66,460.29c12.71-.64,14.35,20.16.82,20.78-12.73.58-13.98-20.12-.82-20.78Z"/>
</svg>